<?xml version="1.0" encoding="utf-8"?>
<svg xmlns="http://www.w3.org/2000/svg" version="1.1" id="Layer_1" x="0px" y="0px" viewBox="0 0 656.75049 1174.8269" width="656.75049" height="1174.8269">
  <style type="text/css" id="style2">
	.st0{fill:#652672;}
</style>
  <path class="st0" d="m 384.00118,60.926945 -25.5,32.7 -0.4,734.499995 c 0,2.3 -1.9,4.3 -4.3,4.3 l -215.5,0.7 c 0,0 -7.4,-5 -7.4,-15.3 0,-10.3 -0.7,-19.5 -0.7,-19.6 0,0 0,0 0,0 l -44.100004,-1.1 c 0,0 0,0 0,0 0,0 -10.3,68.9 41.400004,75.9 0,0 0,0 0.1,0 h 410 c 0.5,0 1.3,-0.2 1.8,-0.3 6.7,-1 14.1,-4 22.4,-13 11.2,-12.1 12.3,-22.2 12.8,-31.9 -0.2,-29.8 -2.4,-60.1 -1.5,-91.6 0.1,-3.4 2.2,-7.9 4.7,-10.1 l 1.4,-1.2 c 0.1,-0.1 0.2,-0.2 0.3,-0.2 3.3,-2.4 53.5,-39.4 72.2,-120.6 20.7,-89.7 -27.6,-172.4 -48.3,-206.9 -87.6,-146.1 -151.7,-244.8 -151.7,-244.8 v 589.7 h 44.8 v -438 c 0,0 37.9,51.7 93.1,158.6 3.2,6.1 37.9,72.4 13.8,148.3 -11.9,37.5 -55.2,82.8 -55.2,82.8 0,0 -13.8,10.3 -13.8,31 v 89.6 c 0,0 0,0 0,0 0,0.2 3.4,17.2 -13.8,17.2 h -117.2 V 92.526945 Z" id="path4" style="fill:#652672"/>
  <path class="st0" d="M 17.701176,1173.2269 H 3.9011764 v -48.3 H 17.701176 Z m -6.9,-6.9 v -34.5 z" id="path6" style="fill:#652672"/>
  <path class="st0" d="M 104.30118,1173.2269 H 91.001176 l -15.7,-23.3 c -0.7,-1 -1.4,-2.1 -2.1,-3 0,1.4 0,2.9 0,4.4 v 21.9 h -13.8 v -48.3 h 13 l 15.8,21.6 c 0.6,0.9 1.3,1.8 1.9,2.7 0.1,-1.5 0.2,-2.9 0.4,-4.5 v -19.8 h 13.800004 z" id="path8" style="fill:#652672"/>
  <path class="st0" d="m 159.80118,1174.1269 c -4.1,0 -7.9,-0.2 -11.2,-0.5 l -3.1,-0.3 v -47 l 3,-0.4 c 4.4,-0.6 8.8,-0.9 13.2,-0.9 9.3,0 16.1,2 20.9,6 5.1,4.2 7.8,10.1 7.8,17.6 0,7.7 -2.7,14.2 -7.8,18.7 -5.1,4.4 -12.9,6.8 -22.8,6.8 z m -0.5,-11.3 c 1.1,0 2.1,0 2.6,0 10.8,0 16.2,-4.8 16.2,-14.2 0,-3.7 -1,-6.7 -3,-8.7 -2.5,-2.5 -6.7,-3.9 -12.2,-3.9 -1.4,0 -2.6,0.1 -3.5,0.1 v 26.7 z" id="path10" style="fill:#652672"/>
  <path class="st0" d="m 252.50118,1174.8269 c -14.3,0 -24.2,-10.1 -24.2,-24.5 0,-14.9 10.2,-25.3 24.9,-25.3 14.3,0 24.2,10.1 24.2,24.5 0,15.1 -10,25.3 -24.9,25.3 z m 0.4,-38.6 c -8.4,0 -11.4,7.5 -11.4,13.9 0,6.4 3.5,13.4 11.3,13.4 7.9,0 11.4,-6.9 11.4,-13.8 0,-6.5 -3.6,-13.5 -11.3,-13.5 z" id="path12" style="fill:#652672"/>
  <path class="st0" d="m 360.60118,1173.2269 h -11.2 l -15.7,-23.3 c -0.4,-0.6 -0.8,-1.2 -1.2,-1.8 0.1,0.8 0.3,1.6 0.5,2.5 l 0.1,0.7 v 21.9 h -13.8 v -48.3 h 11.6 l 15.8,21.6 c 0.2,0.3 0.4,0.5 0.5,0.8 -0.1,-0.5 -0.2,-1.1 -0.3,-1.6 l -0.1,-0.7 v -20 h 13.8 z" id="path14" style="fill:#652672"/>
  <polygon class="st0" points="736,1174.2 767,1174.2 767,1184.5 746.3,1184.5 746.3,1191.4 767,1191.4 767,1201.8 746.3,1201.8 746.3,1209.4 767,1209.4 767,1222.4 736,1222.4 " id="polygon16" style="fill:#652672" transform="translate(-329.89882,-49.173055)"/>
  <path class="st0" d="m 494.90118,1174.7269 c -5,0 -10.4,-1.3 -13.6,-3.1 l -2.4,-1.4 3.7,-11.1 3.6,2 c 2.6,1.4 6,2.3 9,2.3 1.5,0 6.2,-0.3 6.2,-3.6 0,-1.2 0,-2.8 -6.4,-5 -3.5,-1.1 -14.5,-4.6 -14.5,-15 0,-8.5 7.7,-14.7 18.4,-14.7 6.1,0 10,1.5 11.8,2.4 l 2.7,1.4 -4.1,10.8 -3.4,-1.7 c -1.2,-0.6 -3.8,-1.6 -7.3,-1.6 -3.6,0 -5.3,1.4 -5.3,2.8 0,1.1 0,2.4 6.9,4.8 6.6,2.3 14.1,6.1 14.1,15.5 0.2,7.5 -5.9,15.2 -19.4,15.2 z" id="path18" style="fill:#652672"/>
  <path class="st0" d="m 567.50118,1173.2269 h -13.8 v -48.3 h 13.8 z m -6.9,-6.9 v -34.5 z" id="path20" style="fill:#652672"/>
  <path class="st0" d="m 650.50118,1173.2269 h -13 l -5.2,-13.8 h -12.5 l -5.1,13.8 h -12.8 l 18.3,-48.3 h 11.9 z m -27.6,-21.9 h 6.4 l -3.2,-8.5 z" id="path22" style="fill:#652672"/>
  <path d="m 257.70118,1077.2269 h 5.3 v 0 z" id="path24"/>
  <path d="m 257.40118,1075.4269 h 5.3 v 0 z" id="path26"/>
  <path class="st0" d="M 646.401 1079.23 L 646.401 1081.83 C 643.801 1081.83 642.601 1080.93 641.401 1079.73 L 559.501 1079.73 L 550.901 1079.73 C 550.901 1072.73 556.101 1075.43 559.501 1063.23 L 559.501 963.827 C 556.101 951.627 550.801 954.327 550.901 947.327 L 599.101 947.327 C 599.101 955.027 592.801 951.027 589.501 967.927 L 589.501 1051.33 L 638.901 1050.83 C 649.001 1049.03 648.401 1039.53 654.001 1040.63 L 646.401 1079.23 Z" id="path28" style="fill: rgb(101, 38, 114); stroke-width: 1px;"/>
  <path class="st0" d="M 383.901 1079.23 L 383.901 1081.83 C 381.301 1081.83 380.101 1080.93 378.901 1079.73 L 297.001 1079.73 L 288.401 1079.73 C 288.401 1072.73 293.601 1075.43 297.001 1063.23 L 297.001 963.827 C 293.601 951.627 288.301 954.327 288.401 947.327 L 336.701 947.327 C 336.701 955.027 330.401 951.027 327.101 967.927 L 327.101 1051.33 L 376.501 1050.83 C 386.601 1049.03 386.001 1039.53 391.601 1040.63 L 383.901 1079.23 Z" id="path32" style="fill: rgb(101, 38, 114); stroke-width: 1px;"/>
  <path class="st0" d="M 126.901 1077.83 L 78.601 1077.83 C 78.601 1070.53 84.501 1073.93 87.801 1058.93 L 87.801 1023.93 L 39.401 1028.93 L 39.201 1059.73 C 42.501 1073.83 48.301 1070.63 48.301 1077.83 L 0.001 1077.83 C 0.001 1070.33 6.201 1074.13 9.401 1057.93 L 9.401 967.027 C 6.201 950.827 -0.099 954.527 0.001 947.127 L 48.301 947.127 C 48.301 954.227 42.601 951.127 39.301 965.027 L 39.401 1003.03 L 88.201 997.827 L 87.901 966.027 C 84.601 950.927 78.601 954.427 78.701 947.127 L 127.001 947.127 C 127.001 954.527 120.801 950.827 117.601 966.827 L 117.601 1058.03 C 120.801 1074.13 127.001 1070.43 126.901 1077.83 Z" id="path36" style="fill: rgb(101, 38, 114); stroke-width: 1px;"/>
  <path class="st0" d="m 536.50118,1073.9269 -53.3,-126.79996 -18.2,0.1 c 0,0 0,-0.1 0,-0.1 h -10.5 c -13.3,0 0.1,3.5 -0.3,10.6 l -43.4,113.89996 c -5.7,7.2 -8.2,2.8 -8.2,8.3 h 4.8 v 0 h 30.3 v 0 h 6.1 c 0,-3.4 -3.9,-2.1 -2.2,-8.9 l 7,-16.5 46.5,-2.7 6.5,19.8 c 2,7.4 -2.6,3.2 -2.8,8.4 h 6.3 26.2 5.3 5 c 0.5,-3.1 -2.8,-4 -5.1,-6.1 z m -78.7,-42.8 13.5,-32.39996 13.6,30.19996 z" id="path40" style="fill:#652672"/>
  <path class="st0" d="m 272.30118,1073.9269 -53.3,-126.79996 -18.2,0.1 c 0,0 0,-0.1 0,-0.1 h -10.5 c -13.3,0 0.1,3.5 -0.3,10.6 l -43.4,113.89996 c -5.7,7.2 -8.2,2.8 -8.2,8.3 h 4.8 v 0 h 30.3 v 0 h 6.1 c 0,-3.4 -3.9,-2.1 -2.2,-8.9 l 7,-16.5 46.5,-2.7 6.5,19.8 c 2,7.4 -2.6,3.2 -2.8,8.4 h 6.3 26.2 5.3 5 c 0.4,-3.1 -2.8,-4 -5.1,-6.1 z m -78.7,-42.8 13.5,-32.39996 13.6,30.19996 z" id="path42" style="fill:#652672"/>
  <polygon class="st0" points="585,793.8 630.7,793.8 630.7,237.3 585,304.3 " id="polygon44" style="fill:#652672" transform="translate(-329.89882,-49.173055)"/>
  <path class="st0" d="m 353.70118,18.226945 c -48.2,72.1 -96.5,144.199995 -144.7,216.299995 0,169.6 0,339.3 0,508.9 -33.6,0.7 -67.1,1.3 -100.7,2 -5.5,-2.3 -12.800004,-5.8 -20.800004,-10.8 -2.5,-1.6 -14.6,-9.3 -28.1,-22.8 -12.8,-12.9 -20.4,-24.6 -22.5,-28 -6.3,-10 -9.5,-17.6 -14.9,-30.5 -8.7,-20.8 -11.6,-34.2 -12.5999996,-39 -2.6,-13 -3.1,-22.6 -3.7,-34.7 -1,-21.2 0.2,-36.9 0.4,-40.4 0.3,-3.4 1.7,-20 5.8999996,-39.4 7.5,-34.1 19.9,-60 30.5,-81.9 15.2,-31.2 29.4,-53.3 45.5,-78.1 15.100004,-23.3 28.700004,-42.1 38.400004,-55.2 0,26 0.1,52.1 0.1,78.1 -8.3,11.3 -18.1,25.7 -27.800004,43.3 -3.8,6.8 -13.9,25.4 -24.7,52.8 -14.7,37.5 -23,58.8 -25.1,89.4 -0.9,13.4 -2.5,41.6 9.4,74.5 7.2,19.8 16.3,33.3 19.4,37.6 14.1,19.9 30.200004,32.3 40.800004,39.3 15.8,0 31.7,0 47.5,0 -0.3,-158.8 -0.6,-317.5 -0.9,-476.3 79.2,-121.2 137.7,-209.599995 143.7,-216.4999951 4.4,-5.2 9.5,-6.2 9.5,-6.2 3.4,-1.3 6.8,-0.3 9.7,0.5 3.8,1.1 6.4,3 11.6,6.5 3.3,2.3 8.6,5.9000001 14.1,10.6000001 z" id="path46" style="fill:#652672"/>
</svg>