<?xml version="1.0" encoding="UTF-8"?>
<svg version="1.1" xmlns="http://www.w3.org/2000/svg" width="436" height="431">
<path d="M0 0 C0.8660083 0.71373779 0.8660083 0.71373779 1.74951172 1.44189453 C13.31664023 11.02965476 23.69208343 21.16519199 33 33 C33.79148437 33.97453125 34.58296875 34.9490625 35.3984375 35.953125 C42.4489412 44.80517697 48.32260528 54.22104023 54 64 C54.36867188 64.62600098 54.73734375 65.25200195 55.1171875 65.89697266 C69.23426845 90.06451302 76.70426186 117.36700834 80 145 C80.19722656 146.51787109 80.19722656 146.51787109 80.3984375 148.06640625 C86.27395369 202.61342821 69.16381499 258.42416214 35 301 C34.55188965 301.56380371 34.1037793 302.12760742 33.64208984 302.70849609 C22.35731802 316.81132506 9.58581863 329.34623397 -5 340 C-6.02222656 340.75539063 -7.04445313 341.51078125 -8.09765625 342.2890625 C-34.39939094 361.10926709 -63.4312576 373.30664413 -95 380 C-95.84739746 380.18079102 -96.69479492 380.36158203 -97.56787109 380.54785156 C-151.19754838 391.32736312 -210.92008573 378.63555453 -256.4375 348.9375 C-258.30303014 347.64120236 -260.15748743 346.32881063 -262 345 C-262.95777344 344.31550781 -263.91554688 343.63101562 -264.90234375 342.92578125 C-281.06048787 331.09912386 -295.63972633 317.79368302 -308 302 C-308.8330108 300.95807539 -309.66635389 299.91641637 -310.5 298.875 C-345.72024481 254.48323669 -359.33984777 198.092671 -353.41113281 142.28759766 C-349.08749234 107.71387874 -336.70453095 73.2189167 -316 45 C-315.61489258 44.4750293 -315.22978516 43.95005859 -314.83300781 43.40917969 C-309.28624372 35.9005942 -303.32892731 28.86376624 -297 22 C-296.2471875 21.1440625 -295.494375 20.288125 -294.71875 19.40625 C-290.10563537 14.16120186 -285.40426328 9.42007225 -280 5 C-279.48195801 4.56961426 -278.96391602 4.13922852 -278.43017578 3.69580078 C-243.81397373 -25.0100809 -203.60415795 -41.73914804 -159 -47 C-157.9275 -47.13277344 -156.855 -47.26554687 -155.75 -47.40234375 C-100.97778557 -53.08184894 -42.34802976 -35.05597474 0 0 Z " fill="#FDFEFD" transform="translate(355,48)"/>
<path d="M0 0 C3.32565863 2.3693795 5.72590878 5.09689358 8.375 8.1875 C11.17752898 11.13236408 12.48114015 12.21405263 16.55078125 12.78125 C18.97561994 12.71874073 21.3997007 12.6092935 23.8203125 12.453125 C31.00106415 12.15323282 36.78332617 15.02321098 42.328125 19.42578125 C49.33137998 26.53202528 51.53115738 34.01807741 51.57250977 43.64208984 C51.40516196 52.23381643 48.58779279 57.98410241 42.75 64.25 C39.01094541 67.70394149 35.42131394 70.3125 30.1875 70.3125 C30.28172971 75.41737524 30.38796973 80.52181449 30.50488281 85.6262207 C30.54293894 87.35922579 30.57783058 89.09230361 30.609375 90.82543945 C30.655538 93.33050362 30.71344178 95.83507707 30.7734375 98.33984375 C30.79076431 99.48416115 30.79076431 99.48416115 30.80844116 100.65159607 C30.93572893 105.3926945 31.59521216 109.72558078 32.76951599 114.32312012 C33.3786139 117.22209973 33.12127184 119.93811644 32.875 122.875 C32.75840717 127.85351384 33.28417008 130.26533241 36.625 134 C37.80446387 135.11274672 38.99040097 136.21874765 40.1875 137.3125 C42.27809757 141.49369514 41.62255407 146.75933133 41.1875 151.3125 C39.4375 154.8125 39.4375 154.8125 37.1875 157.3125 C36.259375 158.4571875 36.259375 158.4571875 35.3125 159.625 C32.64974372 161.73954175 30.53110368 162.00853603 27.1875 162.3125 C26.98125 163.075625 26.775 163.83875 26.5625 164.625 C22.30068897 176.05440231 15.35722508 186.41660272 5.6875 193.9375 C2.53117563 196.51140737 1.64195421 198.19147147 1.1875 202.25 C1.1513415 203.60368383 1.13840154 204.95922372 1.1875 206.3125 C2.11949219 206.40144531 2.11949219 206.40144531 3.0703125 206.4921875 C3.76898438 206.76289063 4.46765625 207.03359375 5.1875 207.3125 C5.88011182 208.99455727 6.49291041 210.70990182 7.0625 212.4375 C9.30641662 216.89081145 11.40463331 218.67697056 15.9765625 220.3515625 C19.82101083 221.56756724 23.70586098 222.6238962 27.59375 223.69140625 C36.98582269 226.27866244 45.17089688 230.83687376 53.1875 236.3125 C53.620625 235.52875 54.05375 234.745 54.5 233.9375 C56.1875 231.3125 56.1875 231.3125 59.1875 229.3125 C63.85431531 229.3125 65.65239628 229.80066166 69.0625 233.0625 C71.00738634 236.03703205 71.87982114 237.82547294 72.1875 241.3125 C74.43712509 239.06287491 75.1974886 237.25493975 76.4296875 234.33203125 C76.85636719 233.33236328 77.28304687 232.33269531 77.72265625 231.30273438 C78.16480469 230.25408203 78.60695313 229.20542969 79.0625 228.125 C86.68511905 210.06369048 86.68511905 210.06369048 90.1875 208.3125 C93.43558738 208.19220047 96.34908229 208.08590062 99.5 208.9375 C100.056875 209.06125 100.61375 209.185 101.1875 209.3125 C101.8475 208.6525 102.5075 207.9925 103.1875 207.3125 C106.94713342 206.81121554 108.7217501 207.03305006 112 209 C114.39089329 211.52751576 114.9028924 212.89720886 115.1875 216.3125 C115.950625 216.395 116.71375 216.4775 117.5 216.5625 C120.82048185 217.4891461 121.48965784 218.36148863 123.1875 221.3125 C123.26171875 223.890625 123.26171875 223.890625 122.875 226.5625 C122.75511719 227.45453125 122.63523437 228.3465625 122.51171875 229.265625 C122.40472656 229.94109375 122.29773438 230.6165625 122.1875 231.3125 C122.97125 231.60125 123.755 231.89 124.5625 232.1875 C127.1875 233.3125 127.1875 233.3125 129.1875 235.3125 C128.8936226 240.9823396 127.62728681 245.26046671 125.23828125 250.453125 C124.79563179 251.42557159 124.79563179 251.42557159 124.34403992 252.41766357 C123.40616803 254.47077631 122.45321312 256.51647275 121.5 258.5625 C120.87990349 259.91753172 120.26075594 261.27299813 119.64257812 262.62890625 C117.85385022 266.53763428 116.02638241 270.42716902 114.1875 274.3125 C113.64287109 275.47330078 113.09824219 276.63410156 112.53710938 277.83007812 C112.02599609 278.89162109 111.51488281 279.95316406 110.98828125 281.046875 C110.54524658 281.97209961 110.10221191 282.89732422 109.64575195 283.85058594 C107.25859749 287.88073252 103.90000496 290.5399697 100.1875 293.3125 C97.66159152 295.08404652 97.66159152 295.08404652 96.1875 297.3125 C96.22043154 299.18959769 96.26201861 301.06766201 96.37890625 302.94140625 C95.98923107 307.76860699 93.37529545 312.06192598 91.1875 316.3125 C82.31058677 316.15944977 75.81065884 312.46565766 68.1875 308.3125 C68.2184375 310.0140625 68.2184375 310.0140625 68.25 311.75 C68.1875 315.3125 68.1875 315.3125 67.1875 316.3125 C64.77161027 316.41017385 62.38434616 316.44246678 59.96800232 316.43275452 C59.2035236 316.43360894 58.43904489 316.43446337 57.65140015 316.43534368 C55.07022982 316.43700079 52.4891234 316.43147337 49.90795898 316.42602539 C48.06547039 316.42574354 46.22298169 316.42590121 44.38049316 316.4264679 C39.36210763 316.42675596 34.34374579 316.42085775 29.32536578 316.41389394 C24.08695262 316.40766193 18.84853898 316.40705672 13.61012268 316.40586853 C3.68305509 316.40275476 -6.24400156 316.39454076 -16.17106432 316.38451904 C-27.46954095 316.37335931 -38.7680181 316.36784781 -50.06649888 316.36282361 C-73.315172 316.35235818 -96.56383539 316.33475787 -119.8125 316.3125 C-121.51195627 312.91358745 -120.95760538 309.04971577 -120.9375 305.3125 C-120.93339111 304.393479 -120.92928223 303.47445801 -120.92504883 302.52758789 C-120.86619762 294.93325133 -120.72281973 287.34123783 -120.5 279.75 C-120.46640381 278.16541992 -120.46640381 278.16541992 -120.43212891 276.54882812 C-119.8605209 260.04720321 -114.89007944 246.75546115 -102.8125 235.3125 C-95.33936768 229.13669264 -86.3623518 225.44248124 -77.03125 223.0546875 C-67.77422299 220.9687333 -67.77422299 220.9687333 -60.40234375 215.51953125 C-58.83258257 212.57469427 -58.83258257 212.57469427 -57.84765625 209.60546875 C-56.8125 207.3125 -56.8125 207.3125 -54.68359375 206.48828125 C-53.75740234 206.40126953 -53.75740234 206.40126953 -52.8125 206.3125 C-52.5983337 200.16639192 -52.5983337 200.16639192 -55.7890625 195.16796875 C-57.5358802 193.71048463 -59.28892157 192.26043942 -61.046875 190.81640625 C-67.7321084 184.76381499 -72.22217063 176.8160116 -75.9375 168.6875 C-78.10099064 163.97135725 -78.10099064 163.97135725 -82.375 161.4375 C-84.0765625 160.880625 -84.0765625 160.880625 -85.8125 160.3125 C-90.75098834 155.37401166 -92.53222881 151.25534747 -93.1875 144.375 C-93.06377661 139.76188519 -91.45666927 137.05840647 -88.8125 133.3125 C-88.12027344 132.93480469 -87.42804688 132.55710938 -86.71484375 132.16796875 C-84.05486366 129.57353232 -84.28257363 127.50417959 -84.15429688 123.89453125 C-84.13979492 122.67830078 -84.13979492 122.67830078 -84.125 121.4375 C-84.08258072 119.83585087 -84.03709038 118.23427964 -83.98828125 116.6328125 C-83.97708252 115.92398926 -83.96588379 115.21516602 -83.9543457 114.48486328 C-83.8125 112.3125 -83.8125 112.3125 -83.32128906 110.07885742 C-82.62759285 106.30713389 -82.57764025 102.5535722 -82.49609375 98.73046875 C-82.47531265 97.91628983 -82.45453156 97.1021109 -82.43312073 96.26325989 C-82.36800537 93.67558821 -82.30891792 91.08781947 -82.25 88.5 C-82.20677858 86.74022455 -82.16316315 84.98045872 -82.11914062 83.22070312 C-82.0123632 78.91806691 -81.91098982 74.61533357 -81.8125 70.3125 C-83.23067017 69.863302 -83.23067017 69.863302 -84.67749023 69.4050293 C-92.52436292 66.67044825 -98.22056968 59.35946291 -101.921875 52.15234375 C-103.15002717 48.23626205 -103.18075935 44.58146493 -103.1875 40.5 C-103.21199219 39.73107422 -103.23648438 38.96214844 -103.26171875 38.16992188 C-103.30317308 29.98269148 -99.93054047 23.90328719 -94.515625 17.9140625 C-89.668708 13.35618184 -83.30092778 9.36588867 -76.49316406 9.28491211 C-74.73662797 9.36223029 -72.98049645 9.44920519 -71.22485352 9.54467773 C-62.88381894 10.21106013 -62.88381894 10.21106013 -55.15234375 7.78515625 C-53.34266652 5.77208236 -53.34266652 5.77208236 -51.76953125 3.5546875 C-49.16710039 0.57306013 -46.07332004 -0.94385647 -42.5625 -2.625 C-41.38171875 -3.19089844 -40.2009375 -3.75679687 -38.984375 -4.33984375 C-26.58992997 -9.60595648 -11.25785952 -7.02882012 0 0 Z " fill="#47494F" transform="translate(244.8125,47.6875)"/>
<path d="M0 0 C0.8660083 0.71373779 0.8660083 0.71373779 1.74951172 1.44189453 C13.31664023 11.02965476 23.69208343 21.16519199 33 33 C33.79148437 33.97453125 34.58296875 34.9490625 35.3984375 35.953125 C42.4489412 44.80517697 48.32260528 54.22104023 54 64 C54.36867188 64.62600098 54.73734375 65.25200195 55.1171875 65.89697266 C69.23426845 90.06451302 76.70426186 117.36700834 80 145 C80.19722656 146.51787109 80.19722656 146.51787109 80.3984375 148.06640625 C86.27395369 202.61342821 69.16381499 258.42416214 35 301 C34.55188965 301.56380371 34.1037793 302.12760742 33.64208984 302.70849609 C22.35731802 316.81132506 9.58581863 329.34623397 -5 340 C-6.02222656 340.75539063 -7.04445313 341.51078125 -8.09765625 342.2890625 C-34.39939094 361.10926709 -63.4312576 373.30664413 -95 380 C-95.84739746 380.18079102 -96.69479492 380.36158203 -97.56787109 380.54785156 C-151.19754838 391.32736312 -210.92008573 378.63555453 -256.4375 348.9375 C-258.30303014 347.64120236 -260.15748743 346.32881063 -262 345 C-262.95777344 344.31550781 -263.91554688 343.63101562 -264.90234375 342.92578125 C-281.06048787 331.09912386 -295.63972633 317.79368302 -308 302 C-308.8330108 300.95807539 -309.66635389 299.91641637 -310.5 298.875 C-345.72024481 254.48323669 -359.33984777 198.092671 -353.41113281 142.28759766 C-349.08749234 107.71387874 -336.70453095 73.2189167 -316 45 C-315.61489258 44.4750293 -315.22978516 43.95005859 -314.83300781 43.40917969 C-309.28624372 35.9005942 -303.32892731 28.86376624 -297 22 C-296.2471875 21.1440625 -295.494375 20.288125 -294.71875 19.40625 C-290.10563537 14.16120186 -285.40426328 9.42007225 -280 5 C-279.48195801 4.56961426 -278.96391602 4.13922852 -278.43017578 3.69580078 C-243.81397373 -25.0100809 -203.60415795 -41.73914804 -159 -47 C-157.9275 -47.13277344 -156.855 -47.26554687 -155.75 -47.40234375 C-100.97778557 -53.08184894 -42.34802976 -35.05597474 0 0 Z M-182 -37 C-183.25167969 -36.72285156 -184.50335938 -36.44570313 -185.79296875 -36.16015625 C-221.46990383 -27.82241716 -253.69541752 -10.55624119 -280.34375 14.5546875 C-283 17 -283 17 -285.64453125 19.1015625 C-289.24566343 22.00396754 -292.02598786 25.4741692 -295 29 C-295.7425 29.85464844 -296.485 30.70929688 -297.25 31.58984375 C-312.8024915 49.75934103 -325.14377376 69.77390697 -334 92 C-334.2573291 92.63099609 -334.5146582 93.26199219 -334.77978516 93.91210938 C-343.96096157 116.72840846 -348.44136695 141.97531074 -348.3125 166.5 C-348.31034485 167.2432251 -348.3081897 167.9864502 -348.30596924 168.75219727 C-348.24754666 181.37282432 -347.44756237 193.59285996 -345 206 C-344.80132324 207.0302832 -344.60264648 208.06056641 -344.39794922 209.12207031 C-340.22485156 230.19699498 -333.0896233 249.09449312 -323 268 C-322.38640625 269.16789062 -321.7728125 270.33578125 -321.140625 271.5390625 C-314.29840516 284.06428311 -305.71393432 295.42545945 -295.98828125 305.859375 C-294.20992158 307.77399406 -292.54300062 309.73995368 -290.875 311.75 C-270.48617962 334.93820075 -243.44632133 351.54775587 -215 363 C-214.34741211 363.27005859 -213.69482422 363.54011719 -213.02246094 363.81835938 C-203.57139126 367.67885682 -193.90480859 370.08641966 -183.9375 372.25 C-182.8026416 372.49637207 -181.6677832 372.74274414 -180.49853516 372.99658203 C-165.80544402 376.04212033 -151.46635283 377.40930211 -136.5 377.375 C-135.33294022 377.37567978 -135.33294022 377.37567978 -134.14230347 377.37637329 C-120.44058695 377.353091 -107.39866395 375.95994049 -94 373 C-92.75089844 372.74992187 -91.50179688 372.49984375 -90.21484375 372.2421875 C-70.41419577 368.05590226 -51.83959796 360.40367753 -34 351 C-32.86046875 350.40703125 -31.7209375 349.8140625 -30.546875 349.203125 C-13.92887147 340.15983936 0.59967668 328.27033782 14 315 C14.60231445 314.40944824 15.20462891 313.81889648 15.82519531 313.21044922 C20.98128677 308.11898078 25.53374601 302.70767283 30 297 C30.64243652 296.18015625 30.64243652 296.18015625 31.29785156 295.34375 C65.16152481 251.74458035 79.49014786 196.83529027 73.17724609 142.06298828 C65.93625147 88.70063831 38.50220624 37.6869647 -4.31640625 4.3984375 C-22.84015962 -9.69713753 -43.14449265 -20.99384664 -65 -29 C-65.69319336 -29.25523438 -66.38638672 -29.51046875 -67.10058594 -29.7734375 C-87.97979894 -37.35564159 -109.54929458 -41.39963813 -131.77905273 -41.20581055 C-133.93290164 -41.18753901 -136.08631575 -41.18530225 -138.24023438 -41.18554688 C-153.1074027 -41.14910618 -167.46753196 -40.3652548 -182 -37 Z " fill="#C0E8EB" transform="translate(355,48)"/>
<path d="M0 0 C13.00849475 2.80865228 27.34493233 6.28521026 37 16 C37.88171875 16.88429688 38.7634375 17.76859375 39.671875 18.6796875 C42.69833706 22.3891352 42.83066965 25.97657991 43.0625 30.625 C43.58436072 37.31189327 44.65604934 43.11976508 47.09765625 49.421875 C48.09271871 52.2649106 48.57776467 55.02258796 49 58 C48.278125 58.28875 47.55625 58.5775 46.8125 58.875 C41.81281431 62.6525403 39.2939534 68.9381096 38 75 C39.299375 75.4021875 39.299375 75.4021875 40.625 75.8125 C43.91791964 76.97111987 46.91127875 78.38209839 50 80 C50 81.65 50 83.3 50 85 C42.41 85 34.82 85 27 85 C26.67 74.77 26.34 64.54 26 54 C24.02 53.505 24.02 53.505 22 53 C21.67 63.56 21.34 74.12 21 85 C-9.03 85 -39.06 85 -70 85 C-70 67.51 -70 50.02 -70 32 C-66.16375 30.453125 -62.3275 28.90625 -58.375 27.3125 C-47.88656074 23.0536644 -37.454357 18.67643908 -27.0625 14.1875 C-26.44405212 13.92168121 -25.82560425 13.65586243 -25.18841553 13.38198853 C-10.9238784 8.61370934 -10.9238784 8.61370934 0 0 Z " fill="#FDFDFD" transform="translate(257,273)"/>
<path d="M0 0 C6.26854363 4.50444529 11.76120721 9.89170213 15 17 C15 17.66 15 18.32 15 19 C16.32 18.67 17.64 18.34 19 18 C19.33 16.35 19.66 14.7 20 13 C27.88396976 12.24515183 33.35216355 13.68660879 40 18 C45.01802606 22.2544134 49.63360646 27.63850763 50.203125 34.41796875 C50.3373734 42.34981151 49.24697271 47.66164054 44.8125 54.25 C41.57199849 57.41849036 38.45895725 59.92777977 34 61 C27.79241119 60.58660526 21.98405405 59.07828901 16 57.4375 C14.69482422 57.08655273 14.69482422 57.08655273 13.36328125 56.72851562 C11.24085272 56.15709256 9.11986406 55.58085043 7 55 C7.3086499 54.38576172 7.6172998 53.77152344 7.93530273 53.13867188 C9.02718202 50.94539912 10.0564757 48.73390947 11.0625 46.5 C11.40410156 45.7471875 11.74570313 44.994375 12.09765625 44.21875 C12.93694651 42.15504062 13.52113458 40.17217303 14 38 C12.35 38 10.7 38 9 38 C8.62875 39.299375 8.62875 39.299375 8.25 40.625 C6.91377945 44.23279549 5.28303568 46.91118702 3 50 C2.49533203 50.70761475 1.99066406 51.41522949 1.47070312 52.14428711 C-2.3382079 55.0051105 -6.01113614 54.59179713 -10.65625 54.56640625 C-11.59553345 54.57260483 -12.53481689 54.57880341 -13.50256348 54.58518982 C-15.48623621 54.59228614 -17.46996852 54.58911726 -19.45361328 54.57641602 C-22.48972019 54.56254696 -25.52274703 54.59662685 -28.55859375 54.63476562 C-30.48697992 54.6357168 -32.41536995 54.63385808 -34.34375 54.62890625 C-35.25112915 54.64216446 -36.1585083 54.65542267 -37.09338379 54.66908264 C-43.39114371 54.57596899 -43.39114371 54.57596899 -46.52661133 51.60986328 C-47.88429243 49.20495675 -49.12702989 46.86195672 -50.1875 44.3125 C-50.67283203 43.16201172 -50.67283203 43.16201172 -51.16796875 41.98828125 C-51.44253906 41.33214844 -51.71710938 40.67601562 -52 40 C-52.33 39.34 -52.66 38.68 -53 38 C-55.02463255 37.34786708 -55.02463255 37.34786708 -57 37 C-56.76372793 38.31504059 -56.50987576 39.62691966 -56.25 40.9375 C-56.11078125 41.66839844 -55.9715625 42.39929688 -55.828125 43.15234375 C-54.62712761 47.28218854 -52.80784239 51.10442893 -51 55 C-54.18599396 55.81848252 -57.3740388 56.62868699 -60.5625 57.4375 C-61.45775391 57.66759766 -62.35300781 57.89769531 -63.27539062 58.13476562 C-76.77202477 61.54600283 -76.77202477 61.54600283 -80.2578125 59.99609375 C-87.00098708 54.3673769 -93.27255769 48.65659539 -94.28515625 39.390625 C-94.55498889 30.89676286 -92.86886742 23.98896509 -86.9765625 17.67578125 C-79.57391864 11.39962668 -72.19502377 9.31242712 -62.6171875 9.69140625 C-60 10 -60 10 -58 11 C-58 12.98 -58 14.96 -58 17 C-56.68 17.33 -55.36 17.66 -54 18 C-53.75378906 17.11441406 -53.50757813 16.22882813 -53.25390625 15.31640625 C-50.29714082 7.49617619 -43.51847574 1.49674723 -36.09765625 -2.10546875 C-24.07760796 -7.23133664 -11.40708651 -6.28852205 0 0 Z " fill="#FCFCFC" transform="translate(241,52)"/>
<path d="M0 0 C5.72083972 0.05492006 11.84678068 1.09678068 16 5.25 C16.1953125 7.8515625 16.1953125 7.8515625 16.125 10.875 C16.10695312 11.87789062 16.08890625 12.88078125 16.0703125 13.9140625 C16.04710937 14.68492187 16.02390625 15.45578125 16 16.25 C13.36 16.25 10.72 16.25 8 16.25 C8 17.57 8 18.89 8 20.25 C9.918125 20.2190625 9.918125 20.2190625 11.875 20.1875 C15.75 20.125 15.75 20.125 18 21.25 C17.89558594 22.54035156 17.79117188 23.83070313 17.68359375 25.16015625 C16.78010958 34.47249833 16.78010958 34.47249833 19.86328125 42.859375 C22.18133201 44.59837958 22.18133201 44.59837958 24.640625 45.80078125 C27.76898297 47.72233887 29.53922008 49.93088445 31 53.25 C31.5731484 56.66070771 31.56116256 60.01630439 31.53125 63.46875 C31.5350769 64.44485229 31.53890381 65.42095459 31.54284668 66.42663574 C31.54556074 68.48414139 31.53823509 70.54168184 31.52148438 72.59912109 C31.50006789 75.74004382 31.52130364 78.87867927 31.546875 82.01953125 C31.54423163 84.02344253 31.53910648 86.02735238 31.53125 88.03125 C31.53934692 88.96578003 31.54744385 89.90031006 31.55578613 90.86315918 C31.47566559 96.4621261 30.88358442 99.90717423 27 104.25 C22.94963867 107.57758436 19.08401079 107.69081323 14.03125 107.6484375 C13.27332153 107.65130768 12.51539307 107.65417786 11.73449707 107.65713501 C10.1376063 107.65916966 8.54069026 107.65368177 6.94384766 107.64111328 C4.50756803 107.6250499 2.07294713 107.64098109 -0.36328125 107.66015625 C-1.91927447 107.65817371 -3.47526667 107.65432981 -5.03125 107.6484375 C-5.75534058 107.65451019 -6.47943115 107.66058289 -7.22546387 107.6668396 C-11.65779219 107.60558031 -14.58136292 107.13876358 -18 104.25 C-21.59240309 99.1107585 -21.46744373 94.10691537 -21.46875 88.06640625 C-21.47636353 87.09267563 -21.48397705 86.11894501 -21.49182129 85.1157074 C-21.50259601 83.06243445 -21.50548612 81.00910681 -21.50097656 78.95581055 C-21.50000411 75.82572512 -21.54165928 72.6980914 -21.5859375 69.56835938 C-21.59114499 67.56771342 -21.59383269 65.56705898 -21.59375 63.56640625 C-21.61014526 62.63703751 -21.62654053 61.70766876 -21.64343262 60.75013733 C-21.57523573 54.2932432 -20.26651289 51.12452703 -16 46.25 C-13.796875 44.39453125 -13.796875 44.39453125 -11.75 43.0625 C-8.79148831 41.16460881 -8.79148831 41.16460881 -7.203125 38.13671875 C-7.13609375 37.51410156 -7.0690625 36.89148438 -7 36.25 C-7.33 35.92 -7.66 35.59 -8 35.25 C-8.12537741 33.10692104 -8.17574364 30.95921114 -8.1875 28.8125 C-8.20167969 27.63816406 -8.21585938 26.46382812 -8.23046875 25.25390625 C-8 22.25 -8 22.25 -6 20.25 C-3.31160615 19.98008094 -0.70858064 20.16262643 2 20.25 C2 19.26 2 18.27 2 17.25 C1.030625 17.270625 0.06125 17.29125 -0.9375 17.3125 C-4 17.25 -4 17.25 -5 16.25 C-5.09975032 13.73863896 -5.13882183 11.26096585 -5.125 8.75 C-5.12886719 8.04746094 -5.13273437 7.34492188 -5.13671875 6.62109375 C-5.12416703 0.10675348 -5.12416703 0.10675348 0 0 Z " fill="#A5DEE8" transform="translate(109,177.75)"/>
<path d="M0 0 C0 0.66 0 1.32 0 2 C0.70213623 2.27183105 1.40427246 2.54366211 2.12768555 2.82373047 C5.12956662 4.05306009 8.03505501 5.41177011 10.95703125 6.8203125 C12.62475586 7.62275391 12.62475586 7.62275391 14.32617188 8.44140625 C15.47666016 8.99699219 16.62714844 9.55257813 17.8125 10.125 C18.98232422 10.68832031 20.15214844 11.25164062 21.35742188 11.83203125 C24.23899125 13.21988915 27.11981993 14.60926181 30 16 C27.60878443 18.39121557 25.54640411 19.1304068 22.40625 20.3828125 C20.73755859 21.04990234 20.73755859 21.04990234 19.03515625 21.73046875 C17.86855469 22.19066406 16.70195312 22.65085937 15.5 23.125 C14.33339844 23.59292969 13.16679687 24.06085938 11.96484375 24.54296875 C3.26683218 28 3.26683218 28 1 28 C1 46.81 1 65.62 1 85 C-6.26 85 -13.52 85 -21 85 C-21.495 69.655 -21.495 69.655 -22 54 C-23.32 54 -24.64 54 -26 54 C-26.33 64.23 -26.66 74.46 -27 85 C-34.92 85 -42.84 85 -51 85 C-51.34096608 31.05158862 -51.34096608 31.05158862 -37.375 15.75 C-28.85376796 7.77335798 -11.91451129 0 0 0 Z " fill="#FCFCFC" transform="translate(181,273)"/>
<path d="M0 0 C0.79858429 -0.00100708 1.59716858 -0.00201416 2.41995239 -0.00305176 C19.58025522 0.01158004 33.88419872 2.13744576 50.5 7.25 C50.5 17.81 50.5 28.37 50.5 39.25 C37.5 37.25 37.5 37.25 33.66015625 36.65234375 C9.57509969 33.03806666 -14.64117657 33.17604579 -38.70361328 36.86108398 C-42.62515873 37.40648488 -46.56492563 37.81276951 -50.5 38.25 C-50.5 28.02 -50.5 17.79 -50.5 7.25 C-33.55537816 1.08831933 -17.81527392 0.01560951 0 0 Z " fill="#FCFCFB" transform="translate(219.5,110.75)"/>
<path d="M0 0 C1.03898437 0.54269531 2.07796875 1.08539063 3.1484375 1.64453125 C14.16978133 7.36862096 14.16978133 7.36862096 26 11 C26.95648438 11.20238281 27.91296875 11.40476563 28.8984375 11.61328125 C38.39495998 13.33672422 50.58903574 14.86606639 60 12 C63.4375 11.4375 63.4375 11.4375 67 12 C68.5793816 13.87301311 69.65773576 15.81065743 70.8203125 17.96484375 C73.36196668 22.34961802 77.76668978 24.48118042 82 27 C70.62944162 45.37055838 70.62944162 45.37055838 66 50 C59.87839082 49.5014074 54.15969912 48.12354371 48.25 46.5 C46.58856385 46.05200104 44.9271063 45.60408148 43.265625 45.15625 C42.54149414 44.95837891 41.81736328 44.76050781 41.07128906 44.55664062 C40.38776367 44.37294922 39.70423828 44.18925781 39 44 C38.33500488 43.81622803 37.67000977 43.63245605 36.98486328 43.44311523 C29.18441466 41.70168667 21.8778253 43.80290713 14.375 45.9375 C2.27929353 49.30523223 2.27929353 49.30523223 -4 50 C-19 31.4375 -19 31.4375 -19 26 C-17.80375 25.505 -16.6075 25.01 -15.375 24.5 C-6.50671555 19.96419314 -3.87707715 11.7452121 -0.8828125 2.78125 C-0.59148437 1.8634375 -0.30015625 0.945625 0 0 Z " fill="#FCFCFB" transform="translate(188,154)"/>
<path d="M0 0 C4.5926101 9.18522021 0.71771623 26.4915976 -2 36 C-3.62544377 40.2817737 -5.56371794 44.12601074 -8 48 C-8.42925781 48.68578125 -8.85851562 49.3715625 -9.30078125 50.078125 C-14.83013418 57.58108178 -24.98449666 61.5951084 -34 63 C-36.90794962 63.05648108 -39.78579098 62.86338075 -42.6875 62.6875 C-48.24003283 62.38863778 -48.24003283 62.38863778 -53.2109375 64.55078125 C-54.77163969 66.65254225 -54.77163969 66.65254225 -56 70 C-57.32 69.67 -58.64 69.34 -60 69 C-59.49562682 63.45189504 -59.49562682 63.45189504 -56.875 61.0625 C-55.946875 60.0415625 -55.946875 60.0415625 -55 59 C-55.1945267 57.37965674 -55.40356777 55.7598932 -55.68066406 54.15161133 C-57.32335919 43.08351337 -57.90386042 30.15194617 -51.8828125 20.40625 C-39.93518402 5.13708165 -18.91073865 -1.28936854 0 0 Z " fill="#A1D160" transform="translate(341,196)"/>
<path d="M0 0 C1.9375 0.3125 1.9375 0.3125 4 1 C5.24382856 4.73148569 4.61033326 5.43638652 2.9453125 8.89453125 C2.49542969 9.85037109 2.04554688 10.80621094 1.58203125 11.79101562 C0.86080078 13.28665039 0.86080078 13.28665039 0.125 14.8125 C-0.81667293 16.77410477 -1.75178571 18.73887489 -2.6796875 20.70703125 C-3.09976074 21.5781958 -3.51983398 22.44936035 -3.95263672 23.34692383 C-5.08999846 26.22797513 -5.59262832 28.93686753 -6 32 C-4.08117524 31.98969277 -4.08117524 31.98969277 -2 31 C-0.25910878 28.17779809 -0.25910878 28.17779809 1.1640625 24.62890625 C1.58128067 23.67261574 1.58128067 23.67261574 2.00692749 22.69700623 C2.893796 20.65795693 3.76015709 18.61097654 4.625 16.5625 C5.5004213 14.51928975 6.38001972 12.47801212 7.26449585 10.43870544 C8.06556951 8.5871006 8.85460757 6.73030264 9.64306641 4.87329102 C11 2 11 2 13 0 C15.125 0.375 15.125 0.375 17 1 C16.60640565 7.98629971 13.61112797 13.44976364 10.5 19.625 C9.48437166 21.65625668 8.47375755 23.69003005 7.46875 25.7265625 C7.01951172 26.61939941 6.57027344 27.51223633 6.10742188 28.43212891 C5.01414439 30.96720222 4.43306368 33.28111857 4 36 C5.65 36 7.3 36 9 36 C9.16218018 35.46125244 9.32436035 34.92250488 9.49145508 34.36743164 C11.36853435 28.41342073 13.82822497 22.97820041 16.6875 17.4375 C17.10322266 16.61958984 17.51894531 15.80167969 17.94726562 14.95898438 C18.95932995 12.96975449 19.97692847 10.9835846 21 9 C23.475 9.495 23.475 9.495 26 10 C25.39090563 13.69428979 24.3450972 16.74299012 22.75 20.125 C22.08484375 21.55585938 22.08484375 21.55585938 21.40625 23.015625 C20.46875 25.00520833 19.53125 26.99479167 18.59375 28.984375 C17.92859375 30.41523438 17.92859375 30.41523438 17.25 31.875 C16.84265625 32.73867188 16.4353125 33.60234375 16.015625 34.4921875 C15.00185988 36.99540753 14.43841995 39.34088768 14 42 C15.94799278 41.78745376 15.94799278 41.78745376 18 41 C19.21260925 39.33386307 19.21260925 39.33386307 20 37.21875 C20.33 36.45949219 20.66 35.70023437 21 34.91796875 C21.33 34.12003906 21.66 33.32210937 22 32.5 C22.65289609 30.92131765 23.31902477 29.34802504 24 27.78125 C24.28875 27.08064453 24.5775 26.38003906 24.875 25.65820312 C26 24 26 24 28.125 23.26367188 C28.74375 23.17666016 29.3625 23.08964844 30 23 C31.52812968 27.66629701 29.70135868 30.90574294 27.80859375 35.203125 C27.46627213 35.99974548 27.1239505 36.79636597 26.77125549 37.61712646 C26.04282742 39.30399516 25.3086151 40.98837605 24.5690918 42.67041016 C23.45064187 45.22004165 22.35595712 47.7789127 21.26367188 50.33984375 C20.55089622 51.98238649 19.83674542 53.6243333 19.12109375 55.265625 C18.79894394 56.02111633 18.47679413 56.77660767 18.1448822 57.55499268 C14.44806044 65.8758519 9.80143033 72.1991198 2 77 C1.34 77 0.68 77 0 77 C-0.66 78.98 -1.32 80.96 -2 83 C-7.59704888 82.40322257 -12.23156975 80.39858386 -17.3125 78.125 C-18.54709961 77.59712891 -18.54709961 77.59712891 -19.80664062 77.05859375 C-20.97936523 76.53845703 -20.97936523 76.53845703 -22.17578125 76.0078125 C-23.24179565 75.53819092 -23.24179565 75.53819092 -24.3293457 75.05908203 C-26 74 -26 74 -27 71 C-26.7525 70.154375 -26.505 69.30875 -26.25 68.4375 C-25.97104774 64.60190647 -26.43395835 63.93201952 -28.3125 60.75 C-34.41041976 49.48578711 -33.33117175 34.4741361 -33 22 C-31.35 22 -29.7 22 -28 22 C-25.78317598 27.95098874 -23.63692582 33.86152818 -22 40 C-20.68 40.33 -19.36 40.66 -18 41 C-17.79955078 40.48840332 -17.59910156 39.97680664 -17.39257812 39.44970703 C-13.63007472 29.87494639 -9.79639605 20.34256101 -5.625 10.9375 C-5.29177734 10.18291504 -4.95855469 9.42833008 -4.61523438 8.65087891 C-3.24438779 5.59040057 -1.86449193 2.7967379 0 0 Z " fill="#F9F9F9" transform="translate(337,261)"/>
<path d="M0 0 C1.73694538 0.40639442 3.47392459 0.81264432 5.2109375 1.21875 C6.93289878 1.64337888 8.65425601 2.07046481 10.375 2.5 C11.68791016 2.81904297 11.68791016 2.81904297 13.02734375 3.14453125 C13.87167969 3.35464844 14.71601563 3.56476563 15.5859375 3.78125 C16.3392334 3.96751953 17.0925293 4.15378906 17.86865234 4.34570312 C20.06354764 5.01950832 21.97931393 5.91726479 24 7 C25.44685552 27.10263529 25.44685552 27.10263529 22.453125 33.09765625 C20.07702455 35.27863897 17.90894187 36.60530184 15 38 C13.89398438 38.57492188 12.78796875 39.14984375 11.6484375 39.7421875 C1.73138156 44.59997788 -9.23798648 47.76234108 -20.19775391 44.30712891 C-25.05810914 42.32901364 -29.61856741 39.87937842 -34 37 C-34.6612085 36.61730957 -35.32241699 36.23461914 -36.00366211 35.84033203 C-39.26094875 33.63536158 -40.78280565 32.11719282 -41.54858398 28.17822266 C-41.68967447 24.79970512 -41.61091008 21.50173258 -41.4375 18.125 C-41.40591797 16.9596875 -41.37433594 15.794375 -41.34179688 14.59375 C-41.25954174 11.72657109 -41.14466052 8.86459614 -41 6 C-37.33351372 5.04097566 -33.66677838 4.08290687 -30 3.125 C-28.97003906 2.85558594 -27.94007813 2.58617187 -26.87890625 2.30859375 C-24.84668517 1.77788633 -22.81283063 1.25339214 -20.77734375 0.73535156 C-19.11214403 0.29446008 -17.45414083 -0.17796571 -15.81640625 -0.71191406 C-10.05050666 -2.5188333 -5.66688642 -1.46627223 0 0 Z " fill="#B5E4E3" transform="translate(228,203)"/>
<path d="M0 0 C3.95456628 0.46524309 5.46814926 1.50025779 8.1875 4.375 C9 7.125 9 7.125 9.1875 9.375 C9.950625 9.4575 10.71375 9.54 11.5 9.625 C14.82048185 10.5516461 15.48965784 11.42398863 17.1875 14.375 C17.26171875 16.953125 17.26171875 16.953125 16.875 19.625 C16.75511719 20.51703125 16.63523437 21.4090625 16.51171875 22.328125 C16.40472656 23.00359375 16.29773438 23.6790625 16.1875 24.375 C17.363125 24.808125 17.363125 24.808125 18.5625 25.25 C21.1875 26.375 21.1875 26.375 23.1875 28.375 C22.8936226 34.0448396 21.62728681 38.32296671 19.23828125 43.515625 C18.94318161 44.16392273 18.64808197 44.81222046 18.34403992 45.48016357 C17.40616803 47.53327631 16.45321312 49.57897275 15.5 51.625 C14.87990349 52.98003172 14.26075594 54.33549813 13.64257812 55.69140625 C11.85385022 59.60013428 10.02638241 63.48966902 8.1875 67.375 C7.64287109 68.53580078 7.09824219 69.69660156 6.53710938 70.89257812 C6.02599609 71.95412109 5.51488281 73.01566406 4.98828125 74.109375 C4.54524658 75.03459961 4.10221191 75.95982422 3.64575195 76.91308594 C1.25859749 80.94323252 -2.09999504 83.6024697 -5.8125 86.375 C-8.33840848 88.14654652 -8.33840848 88.14654652 -9.8125 90.375 C-9.87624935 92.38310463 -9.93279652 94.39637876 -9.8203125 96.40234375 C-9.80984247 99.04602724 -10.64163545 101.03327089 -11.8125 103.375 C-12.8025 102.88 -12.8025 102.88 -13.8125 102.375 C-13.3175 100.395 -13.3175 100.395 -12.8125 98.375 C-13.8025 98.375 -14.7925 98.375 -15.8125 98.375 C-16.24175781 97.93542969 -16.67101562 97.49585938 -17.11328125 97.04296875 C-19.45268132 94.74659213 -21.96718722 93.89410293 -25 92.6875 C-26.08667969 92.25050781 -27.17335938 91.81351562 -28.29296875 91.36328125 C-29.12441406 91.03714844 -29.95585937 90.71101563 -30.8125 90.375 C-30.4825 88.395 -30.1525 86.415 -29.8125 84.375 C-25.1925 86.025 -20.5725 87.675 -15.8125 89.375 C-15.1525 87.395 -14.4925 85.415 -13.8125 83.375 C-11.82421875 81.72265625 -11.82421875 81.72265625 -9.5 80.4375 C-2.57882355 76.59501324 0.69438274 69.89729208 3.66796875 62.8671875 C4.11635857 61.83442184 4.11635857 61.83442184 4.57380676 60.78079224 C5.51529796 58.60711482 6.44523726 56.42871582 7.375 54.25 C8.009023 52.78223107 8.64378284 51.3147802 9.27929688 49.84765625 C10.92937527 46.02920925 12.56964786 42.20723386 14.1875 38.375 C14.77785034 37.00625732 14.77785034 37.00625732 15.38012695 35.60986328 C16.35738535 33.30078404 16.35738535 33.30078404 16.1875 30.375 C15.1975 30.375 14.2075 30.375 13.1875 30.375 C12.8632605 31.13961548 12.8632605 31.13961548 12.5324707 31.91967773 C11.54121866 34.22628042 10.52116894 36.51899489 9.5 38.8125 C9.16033203 39.61494141 8.82066406 40.41738281 8.47070312 41.24414062 C7.48990042 43.41657278 6.54635679 45.41575794 5.1875 47.375 C2.41796875 48.41015625 2.41796875 48.41015625 0.1875 48.375 C0.58381626 41.19914604 3.01683565 35.91764698 6.25 29.5625 C7.18351248 27.7043899 8.1121404 25.84381532 9.03515625 23.98046875 C9.44773682 23.16731201 9.86031738 22.35415527 10.28540039 21.51635742 C11.3816154 19.30148839 11.3816154 19.30148839 11.1875 16.375 C9.8675 16.045 8.5475 15.715 7.1875 15.375 C6.96320313 16.14070313 6.73890625 16.90640625 6.5078125 17.6953125 C4.70502396 22.71965216 2.38527627 27.44829444 0.0625 32.25 C-0.40542969 33.22453125 -0.87335938 34.1990625 -1.35546875 35.203125 C-2.50464845 37.59529499 -3.65707243 39.98584316 -4.8125 42.375 C-6.4625 42.375 -8.1125 42.375 -9.8125 42.375 C-9.42782318 35.37190925 -6.38876008 29.92563782 -3.25 23.75 C-2.21876098 21.72074652 -1.19625234 19.68702676 -0.18359375 17.6484375 C0.27088135 16.75560059 0.72535645 15.86276367 1.19360352 14.94287109 C2.24659305 12.22232482 2.38478752 10.26443338 2.1875 7.375 C0.26370632 7.38156094 0.26370632 7.38156094 -1.8125 8.375 C-3.50480923 11.21590821 -3.50480923 11.21590821 -4.87109375 14.78125 C-5.4275843 16.09511566 -5.98422968 17.40891574 -6.54101562 18.72265625 C-7.40010447 20.80089867 -8.25269547 22.88161918 -9.10083008 24.96435547 C-9.92493952 26.97292909 -10.77183222 28.97070953 -11.62109375 30.96875 C-12.11407959 32.17208984 -12.60706543 33.37542969 -13.11499023 34.61523438 C-14.8125 37.375 -14.8125 37.375 -17.51196289 38.27539062 C-18.27114014 38.30826172 -19.03031738 38.34113281 -19.8125 38.375 C-20.04326271 33.94103033 -19.53328612 31.0627932 -17.58984375 27.08203125 C-17.13416016 26.12232422 -16.67847656 25.16261719 -16.20898438 24.17382812 C-15.72751953 23.18833984 -15.24605469 22.20285156 -14.75 21.1875 C-13.79190372 19.21914017 -12.84223999 17.24664631 -11.90234375 15.26953125 C-11.47816162 14.40175049 -11.05397949 13.53396973 -10.61694336 12.63989258 C-9.50942405 10.25837886 -9.50942405 10.25837886 -10.8125 7.375 C-11.8025 7.045 -12.7925 6.715 -13.8125 6.375 C-14.07675781 7.04394287 -14.34101563 7.71288574 -14.61328125 8.40209961 C-16.03705909 11.93168893 -17.51505935 15.43726127 -19 18.94140625 C-19.30317139 19.6573143 -19.60634277 20.37322235 -19.91870117 21.11082458 C-20.5571758 22.61786506 -21.19593439 24.12478526 -21.83496094 25.6315918 C-22.81054297 27.93288358 -23.78420399 30.23498209 -24.7578125 32.53710938 C-25.38009025 34.00525839 -26.00248221 35.473359 -26.625 36.94140625 C-27.05945435 37.9696627 -27.05945435 37.9696627 -27.50268555 39.01869202 C-28.84903461 42.18795788 -30.21970773 45.32101506 -31.8125 48.375 C-33.6875 48.0625 -33.6875 48.0625 -35.8125 47.375 C-37.88726964 44.26284553 -38.52314913 42.04560134 -39.375 38.4375 C-39.62378906 37.39722656 -39.87257813 36.35695313 -40.12890625 35.28515625 C-40.35449219 34.32480469 -40.58007812 33.36445313 -40.8125 32.375 C-41.14325573 31.04102491 -41.47539087 29.7073837 -41.8125 28.375 C-43.4625 28.375 -45.1125 28.375 -46.8125 28.375 C-46.53261436 32.70917765 -46.23647452 37.04210059 -45.9375 41.375 C-45.85886719 42.59574219 -45.78023438 43.81648438 -45.69921875 45.07421875 C-44.94307862 56.78298454 -44.94307862 56.78298454 -40.625 67.5625 C-39.14274387 70.33557696 -38.79179647 71.12655767 -39.0625 74.375 C-39.31 75.035 -39.5575 75.695 -39.8125 76.375 C-42.14453125 76.234375 -42.14453125 76.234375 -44.8125 75.375 C-49.84092212 67.11123652 -51.5635127 56.40077216 -51.90234375 46.83984375 C-52.18767366 40.18595025 -55.01853837 36.84600001 -59.8125 32.375 C-61.43791044 30.99167196 -63.08635413 29.63037882 -64.8125 28.375 C-64.1525 28.045 -63.4925 27.715 -62.8125 27.375 C-62.4825 26.385 -62.1525 25.395 -61.8125 24.375 C-58.70051935 25.87336105 -55.7590385 27.57433758 -52.8125 29.375 C-52.379375 28.59125 -51.94625 27.8075 -51.5 27 C-49.8125 24.375 -49.8125 24.375 -46.8125 22.375 C-42.14568469 22.375 -40.34760372 22.86316166 -36.9375 26.125 C-34.99261366 29.09953205 -34.12017886 30.88797294 -33.8125 34.375 C-31.56287491 32.12537491 -30.8025114 30.31743975 -29.5703125 27.39453125 C-29.14363281 26.39486328 -28.71695313 25.39519531 -28.27734375 24.36523438 C-27.83519531 23.31658203 -27.39304687 22.26792969 -26.9375 21.1875 C-19.31488095 3.12619048 -19.31488095 3.12619048 -15.8125 1.375 C-12.56441262 1.25470047 -9.65091771 1.14840062 -6.5 2 C-5.943125 2.12375 -5.38625 2.2475 -4.8125 2.375 C-2.8125 0.375 -2.8125 0.375 0 0 Z " fill="#494A50" transform="translate(350.8125,254.625)"/>
<path d="M0 0 C5.72083972 0.05492006 11.84678068 1.09678068 16 5.25 C16.1953125 7.8515625 16.1953125 7.8515625 16.125 10.875 C16.10695312 11.87789062 16.08890625 12.88078125 16.0703125 13.9140625 C16.04710937 14.68492187 16.02390625 15.45578125 16 16.25 C13.36 16.25 10.72 16.25 8 16.25 C8 17.57 8 18.89 8 20.25 C9.918125 20.2190625 9.918125 20.2190625 11.875 20.1875 C15.75 20.125 15.75 20.125 18 21.25 C17.89558594 22.54035156 17.79117188 23.83070313 17.68359375 25.16015625 C16.78010958 34.47249833 16.78010958 34.47249833 19.86328125 42.859375 C22.18133201 44.59837958 22.18133201 44.59837958 24.640625 45.80078125 C27.76898297 47.72233887 29.53922008 49.93088445 31 53.25 C31.5731484 56.66070771 31.56116256 60.01630439 31.53125 63.46875 C31.5350769 64.44485229 31.53890381 65.42095459 31.54284668 66.42663574 C31.54556074 68.48414139 31.53823509 70.54168184 31.52148438 72.59912109 C31.50006789 75.74004382 31.52130364 78.87867927 31.546875 82.01953125 C31.54423163 84.02344253 31.53910648 86.02735238 31.53125 88.03125 C31.53934692 88.96578003 31.54744385 89.90031006 31.55578613 90.86315918 C31.47566559 96.4621261 30.88358442 99.90717423 27 104.25 C22.94963867 107.57758436 19.08401079 107.69081323 14.03125 107.6484375 C13.27332153 107.65130768 12.51539307 107.65417786 11.73449707 107.65713501 C10.1376063 107.65916966 8.54069026 107.65368177 6.94384766 107.64111328 C4.50756803 107.6250499 2.07294713 107.64098109 -0.36328125 107.66015625 C-1.91927447 107.65817371 -3.47526667 107.65432981 -5.03125 107.6484375 C-5.75534058 107.65451019 -6.47943115 107.66058289 -7.22546387 107.6668396 C-11.65779219 107.60558031 -14.58136292 107.13876358 -18 104.25 C-21.59240309 99.1107585 -21.46744373 94.10691537 -21.46875 88.06640625 C-21.47636353 87.09267563 -21.48397705 86.11894501 -21.49182129 85.1157074 C-21.50259601 83.06243445 -21.50548612 81.00910681 -21.50097656 78.95581055 C-21.50000411 75.82572512 -21.54165928 72.6980914 -21.5859375 69.56835938 C-21.59114499 67.56771342 -21.59383269 65.56705898 -21.59375 63.56640625 C-21.61014526 62.63703751 -21.62654053 61.70766876 -21.64343262 60.75013733 C-21.57523573 54.2932432 -20.26651289 51.12452703 -16 46.25 C-13.796875 44.39453125 -13.796875 44.39453125 -11.75 43.0625 C-8.79148831 41.16460881 -8.79148831 41.16460881 -7.203125 38.13671875 C-7.13609375 37.51410156 -7.0690625 36.89148438 -7 36.25 C-7.33 35.92 -7.66 35.59 -8 35.25 C-8.12537741 33.10692104 -8.17574364 30.95921114 -8.1875 28.8125 C-8.20167969 27.63816406 -8.21585938 26.46382812 -8.23046875 25.25390625 C-8 22.25 -8 22.25 -6 20.25 C-3.31160615 19.98008094 -0.70858064 20.16262643 2 20.25 C2 19.26 2 18.27 2 17.25 C1.030625 17.270625 0.06125 17.29125 -0.9375 17.3125 C-4 17.25 -4 17.25 -5 16.25 C-5.09975032 13.73863896 -5.13882183 11.26096585 -5.125 8.75 C-5.12886719 8.04746094 -5.13273437 7.34492188 -5.13671875 6.62109375 C-5.12416703 0.10675348 -5.12416703 0.10675348 0 0 Z M-1 36.25 C-1.433125 37.9825 -1.433125 37.9825 -1.875 39.75 C-3.74349797 44.89064807 -7.37533218 47.30089688 -11.72265625 50.390625 C-14.52794283 52.68104766 -15.78645278 54.64446026 -16.26742554 58.26062012 C-16.27504913 58.96803345 -16.28267273 59.67544678 -16.29052734 60.40429688 C-16.30328705 61.21193481 -16.31604675 62.01957275 -16.32919312 62.85168457 C-16.33141876 63.71531616 -16.33364441 64.57894775 -16.3359375 65.46875 C-16.3425943 66.36364136 -16.3492511 67.25853271 -16.35610962 68.18054199 C-16.36622153 70.07004748 -16.37092709 71.95958858 -16.37060547 73.84912109 C-16.37498463 76.73985426 -16.41133523 79.62906751 -16.44921875 82.51953125 C-16.45508601 84.35676562 -16.45905601 86.19400723 -16.4609375 88.03125 C-16.47530853 88.89488159 -16.48967957 89.75851318 -16.50448608 90.64831543 C-16.47638661 94.33647517 -16.39422606 96.601049 -14.45385742 99.79516602 C-11.09184748 101.78842213 -8.07596676 101.80588989 -4.27734375 101.74609375 C-3.53545303 101.74754898 -2.79356232 101.74900421 -2.02919006 101.75050354 C-0.46497662 101.74884733 1.09925358 101.73731695 2.66333008 101.71655273 C5.05815707 101.68755259 7.45077542 101.69595644 9.84570312 101.70898438 C11.36719826 101.70274788 12.88868641 101.69435762 14.41015625 101.68359375 C15.12583267 101.68652939 15.84150909 101.68946503 16.57887268 101.69248962 C20.38161279 101.66335079 20.38161279 101.66335079 23.68614197 99.99252319 C25.31819015 97.82799572 25.38997126 96.65817606 25.41992188 93.96557617 C25.43583374 93.10425583 25.45174561 92.24293549 25.46813965 91.35551453 C25.46834106 90.42737442 25.46854248 89.49923431 25.46875 88.54296875 C25.47636353 87.58481766 25.48397705 86.62666656 25.49182129 85.63948059 C25.50263014 83.61116135 25.50547222 81.58278642 25.50097656 79.55444336 C25.50000679 76.45917059 25.54156599 73.36639745 25.5859375 70.27148438 C25.59114651 68.29948433 25.59383266 66.32747568 25.59375 64.35546875 C25.61014526 63.43340134 25.62654053 62.51133392 25.64343262 61.56132507 C25.59703619 57.2196693 25.43322494 54.19856885 22.65820312 50.7355957 C20.07645434 48.14721964 20.07645434 48.14721964 16.875 46.375 C12.92412248 43.45478618 12.39408665 40.89695549 11 36.25 C7.04 36.25 3.08 36.25 -1 36.25 Z " fill="#46494F" transform="translate(109,177.75)"/>
<path d="M0 0 C2.32421875 0.09375 2.32421875 0.09375 5 1 C8.26735108 4.9129953 10.59160881 9.51750536 13 14 C13.37688965 14.69383789 13.7537793 15.38767578 14.14208984 16.10253906 C19.11697492 25.41910366 23.29718058 33.52266262 20.39453125 44.234375 C18.42454057 49.15472732 15.12982096 52.22490982 10.625 54.921875 C4.87078218 57.28521446 -0.87078218 57.28521446 -6.625 54.921875 C-11.94739546 51.73544087 -15.35052577 48.02651043 -17 42 C-18.68459056 33.30870532 -15.03795069 26.49079915 -11 19 C-10.58766113 18.23365234 -10.17532227 17.46730469 -9.75048828 16.67773438 C-1.56482727 1.56482727 -1.56482727 1.56482727 0 0 Z " fill="#9CDCEA" transform="translate(107,104)"/>
<path d="M0 0 C3.32565863 2.3693795 5.72590878 5.09689358 8.375 8.1875 C11.17752898 11.13236408 12.48114015 12.21405263 16.55078125 12.78125 C18.97561994 12.71874073 21.3997007 12.6092935 23.8203125 12.453125 C31.00106415 12.15323282 36.78332617 15.02321098 42.328125 19.42578125 C49.33259685 26.53326004 51.52418496 34.0142514 51.57470703 43.63769531 C51.43733767 50.95685819 49.73466207 56.67395905 44.51953125 62.0234375 C42.875 63.4375 42.875 63.4375 40.1875 65.3125 C39.5275 64.6525 38.8675 63.9925 38.1875 63.3125 C39.58316594 59.92302558 40.9148037 56.76349772 42.8125 53.625 C45.94466632 48.35726573 45.80613887 42.27617867 45.1875 36.3125 C44.17253719 33.41191907 42.78292588 30.92690226 41.1875 28.3125 C40.89617187 27.62027344 40.60484375 26.92804688 40.3046875 26.21484375 C38.90252898 23.82725214 37.71953208 23.35591981 35.1875 22.3125 C34.52492188 21.97089844 33.86234375 21.62929687 33.1796875 21.27734375 C27.52036064 18.53121282 22.45415928 17.57415592 16.1875 17.3125 C16.1875 18.9625 16.1875 20.6125 16.1875 22.3125 C14.5375 22.6425 12.8875 22.9725 11.1875 23.3125 C10.90777344 22.74402344 10.62804687 22.17554687 10.33984375 21.58984375 C4.69672846 10.72094967 -2.38241811 5.55922073 -13.703125 1.19921875 C-23.21265979 -1.5126712 -33.09472627 -0.13618961 -41.8125 4.3125 C-49.13288001 8.61561034 -54.182076 14.67843083 -57.8125 22.3125 C-59.4625 21.9825 -61.1125 21.6525 -62.8125 21.3125 C-62.4825 19.3325 -62.1525 17.3525 -61.8125 15.3125 C-72.19284833 14.5467366 -80.07467937 14.95772136 -88.8125 21.3125 C-94.4368515 26.83817867 -96.82195417 32.73694422 -97.25 40.5625 C-97.12350727 47.19433302 -94.85020637 52.96281297 -90.3671875 57.90625 C-89.91601562 58.3290625 -89.46484375 58.751875 -89 59.1875 C-87.9171875 60.239375 -87.9171875 60.239375 -86.8125 61.3125 C-86.8125 62.6325 -86.8125 63.9525 -86.8125 65.3125 C-88.59765625 65.98828125 -88.59765625 65.98828125 -90.8125 66.3125 C-96.68137644 62.67563474 -100.98310061 55.82872348 -102.8125 49.3125 C-103.20845217 46.26709893 -103.33518006 43.25677067 -103.375 40.1875 C-103.38974365 39.43557373 -103.4044873 38.68364746 -103.41967773 37.90893555 C-103.27344227 29.91327074 -99.80433047 23.76369127 -94.515625 17.9140625 C-89.668708 13.35618184 -83.30092778 9.36588867 -76.49316406 9.28491211 C-74.73662797 9.36223029 -72.98049645 9.44920519 -71.22485352 9.54467773 C-62.88381894 10.21106013 -62.88381894 10.21106013 -55.15234375 7.78515625 C-53.34266652 5.77208236 -53.34266652 5.77208236 -51.76953125 3.5546875 C-49.16710039 0.57306013 -46.07332004 -0.94385647 -42.5625 -2.625 C-41.38171875 -3.19089844 -40.2009375 -3.75679687 -38.984375 -4.33984375 C-26.58992997 -9.60595648 -11.25785952 -7.02882012 0 0 Z " fill="#46484D" transform="translate(244.8125,47.6875)"/>
<path d="M0 0 C4.5926101 9.18522021 0.71771623 26.4915976 -2 36 C-3.62544377 40.2817737 -5.56371794 44.12601074 -8 48 C-8.42925781 48.68578125 -8.85851562 49.3715625 -9.30078125 50.078125 C-14.83013418 57.58108178 -24.98449666 61.5951084 -34 63 C-36.90794962 63.05648108 -39.78579098 62.86338075 -42.6875 62.6875 C-48.24003283 62.38863778 -48.24003283 62.38863778 -53.2109375 64.55078125 C-54.77163969 66.65254225 -54.77163969 66.65254225 -56 70 C-57.32 69.67 -58.64 69.34 -60 69 C-59.49562682 63.45189504 -59.49562682 63.45189504 -56.875 61.0625 C-55.946875 60.0415625 -55.946875 60.0415625 -55 59 C-55.1945267 57.37965674 -55.40356777 55.7598932 -55.68066406 54.15161133 C-57.32335919 43.08351337 -57.90386042 30.15194617 -51.8828125 20.40625 C-39.93518402 5.13708165 -18.91073865 -1.28936854 0 0 Z M-43 19 C-48.89037194 25.67926104 -51.34437283 31.05469713 -51.1875 40.0625 C-51.18685547 40.76955078 -51.18621094 41.47660156 -51.18554688 42.20507812 C-51.15684054 45.60199467 -51.05413497 48.75326429 -50 52 C-45.38211306 49.84632171 -42.25723767 47.68219579 -40 43 C-38.97505322 37.40464127 -39.01275887 31.67131563 -39 26 C-37.68 26 -36.36 26 -35 26 C-34.67 28.64 -34.34 31.28 -34 34 C-30.59871159 31.21973335 -27.46834303 28.59843832 -24.75 25.125 C-24.1725 24.42375 -23.595 23.7225 -23 23 C-22.01 23 -21.02 23 -20 23 C-20.47120139 27.6951853 -22.26464714 29.77980492 -25.5 33.125 C-30.61055021 38.54306183 -35.34393421 44.18444701 -40 50 C-40.74507813 50.88945312 -41.49015625 51.77890625 -42.2578125 52.6953125 C-44.20100811 54.78439373 -44.20100811 54.78439373 -44 57 C-34.04673827 57.62533582 -25.2195476 56.58883388 -17.125 50.3125 C-9.31904717 42.89871226 -5.28678365 31.31131485 -4.92236328 20.75 C-4.90212769 18.35331635 -4.91239436 15.95912322 -4.9375 13.5625 C-4.94201172 12.73556641 -4.94652344 11.90863281 -4.95117188 11.05664062 C-4.96284189 9.03772854 -4.98077282 7.01885426 -5 5 C-18.21366978 5 -33.30952187 9.7421325 -43 19 Z " fill="#45474D" transform="translate(341,196)"/>
<path d="M0 0 C0.75516907 -0.00133942 1.51033813 -0.00267883 2.28839111 -0.00405884 C18.85665889 0.00230564 34.85261248 1.5909024 50.8125 6.25 C53.12094801 12.59823202 53.01068283 18.54481414 52.8125 25.25 C46.87617099 23.9779295 44.1725856 21.0373786 40.8125 16.25 C38.9375 12.8125 38.9375 12.8125 37.8125 10.25 C37.11769531 10.394375 36.42289063 10.53875 35.70703125 10.6875 C14.54906694 14.54902961 -5.25853369 13.00509449 -24.1875 2.25 C-24.1875 1.92 -24.1875 1.59 -24.1875 1.25 C-16.11818034 0.13683654 -8.13377259 0.00848991 0 0 Z " fill="#C79E7D" transform="translate(219.1875,149.75)"/>
<path d="M0 0 C2.32421875 0.09375 2.32421875 0.09375 5 1 C8.26735108 4.9129953 10.59160881 9.51750536 13 14 C13.37688965 14.69383789 13.7537793 15.38767578 14.14208984 16.10253906 C19.11697492 25.41910366 23.29718058 33.52266262 20.39453125 44.234375 C18.42454057 49.15472732 15.12982096 52.22490982 10.625 54.921875 C4.87078218 57.28521446 -0.87078218 57.28521446 -6.625 54.921875 C-11.94739546 51.73544087 -15.35052577 48.02651043 -17 42 C-18.68459056 33.30870532 -15.03795069 26.49079915 -11 19 C-10.58766113 18.23365234 -10.17532227 17.46730469 -9.75048828 16.67773438 C-1.56482727 1.56482727 -1.56482727 1.56482727 0 0 Z M1 8 C-0.79915542 11.37105856 -2.58796458 14.74750306 -4.375 18.125 C-4.88289063 19.07632813 -5.39078125 20.02765625 -5.9140625 21.0078125 C-11.59884353 31.48879496 -11.59884353 31.48879496 -11 43 C-8.43883288 47.26861187 -5.63206937 49.23981364 -1 51 C4.10569091 51.88794625 7.06664243 50.12094545 11.265625 47.484375 C13.88088765 45.24608714 14.76611637 43.09656913 15.4765625 39.765625 C16.03801623 30.25046183 11.55678045 23.01762636 7 15 C6.61779297 14.32646484 6.23558594 13.65292969 5.84179688 12.95898438 C4.89853519 11.30370152 3.94983708 9.65151853 3 8 C2.34 8 1.68 8 1 8 Z " fill="#44484E" transform="translate(107,104)"/>
<path d="M0 0 C0.99 0.33 1.98 0.66 3 1 C2.01 2.485 2.01 2.485 1 4 C1 5.32 1 6.64 1 8 C0.20774838 9.35814564 -0.63228301 10.68878322 -1.5 12 C-5.73244864 19.89262253 -4.41081335 29.31603776 -4 38 C-3.2575 37.2575 -2.515 36.515 -1.75 35.75 C1 33 1 33 3.265625 31.234375 C5.9144703 27.82189863 5.67319823 24.46013327 5.75 20.25 C5.79447266 19.06083984 5.79447266 19.06083984 5.83984375 17.84765625 C5.91027787 15.89897906 5.95743482 13.94948505 6 12 C7.65614657 11.61781233 9.32457024 11.28604898 11 11 C12 12 12 12 13 19 C16.3 15.37 19.6 11.74 23 8 C24.32 8.33 25.64 8.66 27 9 C26.52879861 13.6951853 24.73535286 15.77980492 21.5 19.125 C14.42252318 26.63785808 7.85992563 34.49365634 2 43 C5.465 43.495 5.465 43.495 9 44 C7.68 44.66 6.36 45.32 5 46 C6.32 46.66 7.64 47.32 9 48 C7.57107422 47.98646484 7.57107422 47.98646484 6.11328125 47.97265625 C-0.90586986 47.84420391 -0.90586986 47.84420391 -7.04296875 50.625 C-8.5665362 52.73042281 -8.5665362 52.73042281 -10 56 C-11.32 55.67 -12.64 55.34 -14 55 C-13.49562682 49.45189504 -13.49562682 49.45189504 -10.875 47.0625 C-9.946875 46.0415625 -9.946875 46.0415625 -9 45 C-9.1945267 43.37965674 -9.40356777 41.7598932 -9.68066406 40.15161133 C-11.38781765 28.64920724 -11.69897132 16.44723906 -5.703125 6.2421875 C-3.96142962 3.94922157 -2.09264789 1.97436779 0 0 Z " fill="#3F4347" transform="translate(295,210)"/>
<path d="M0 0 C1.60433809 0.47859241 3.20846416 0.95789558 4.8125 1.4375 C6.15248047 1.83775391 6.15248047 1.83775391 7.51953125 2.24609375 C9.35473055 2.80387873 11.18033726 3.39344575 13 4 C21.73760865 4.71832093 29.10343563 3.8054384 37.35546875 0.875 C40 0 40 0 43 0 C43 2.64 43 5.28 43 8 C42.02417969 8.47308594 41.04835937 8.94617188 40.04296875 9.43359375 C32.98398466 12.80977279 32.98398466 12.80977279 27.5078125 18.1484375 C26.77256149 20.43680302 26.3631241 22.62456319 26 25 C25.45428794 27.0254313 24.89150188 29.04633274 24.3125 31.0625 C23.87243917 32.70765047 23.43400546 34.35324171 23 36 C21.68 36 20.36 36 19 36 C18.65388672 34.24623047 18.65388672 34.24623047 18.30078125 32.45703125 C17.97233581 30.90864561 17.64285378 29.36047961 17.3125 27.8125 C17.08916992 26.65911133 17.08916992 26.65911133 16.86132812 25.48242188 C15.72301888 20.28191101 14.31606494 17.41270251 10 14 C8.25765878 13.01055367 6.48652709 12.06968958 4.6875 11.1875 C0.18956801 8.63534007 0.18956801 8.63534007 -0.64453125 5.83984375 C-0.625 3.625 -0.625 3.625 0 0 Z " fill="#F7F7F7" transform="translate(198,249)"/>
<path d="M0 0 C2.84376668 0.33577098 3.82232059 0.79089517 5.70751953 3.00952148 C6.53678955 4.30224976 6.53678955 4.30224976 7.3828125 5.62109375 C7.99253906 6.55630859 8.60226563 7.49152344 9.23046875 8.45507812 C9.85566406 9.43927734 10.48085937 10.42347656 11.125 11.4375 C12.3758114 13.37485655 13.62833511 15.31110898 14.8828125 17.24609375 C15.43340332 18.10904053 15.98399414 18.9719873 16.55126953 19.86108398 C17.95990711 22.08584999 17.95990711 22.08584999 20 24 C20.14507695 26.74485593 20.18652423 29.38480543 20.125 32.125 C20.11597656 32.87910156 20.10695312 33.63320312 20.09765625 34.41015625 C20.0740687 36.27357254 20.03819719 38.13682593 20 40 C15.80074716 36.3588178 13.95187126 31.98681097 11.90820312 26.95703125 C11.00309049 24.82910687 11.00309049 24.82910687 9 22 C5.48898577 20.66322351 5.48898577 20.66322351 2 20 C-2.37150871 15.39841189 -3.27403511 12.35645142 -3.234375 6.19921875 C-2.93759515 3.41443449 -2.01047945 1.92670947 0 0 Z " fill="#F3F4F5" transform="translate(161,184)"/>
<path d="M0 0 C3 1 3 1 5 4 C5.75624639 9.07083108 6.10255796 14.34592493 2.9375 18.625 C-0.47961956 21.38777751 -2.65920659 21.82977281 -7 22 C-7.14695312 22.54527344 -7.29390625 23.09054688 -7.4453125 23.65234375 C-9.28185075 29.826912 -11.99989478 34.93399848 -16 40 C-16.33 40 -16.66 40 -17 40 C-18.22102193 26.33133787 -18.22102193 26.33133787 -15.53515625 21.203125 C-14.19773934 19.62470821 -12.80945559 18.0882774 -11.37890625 16.59375 C-8.47149206 13.42376146 -6.27361482 10.01296593 -4 6.375 C-3.60240479 5.74577637 -3.20480957 5.11655273 -2.79516602 4.46826172 C-1.85837121 2.98202653 -0.92841621 1.49148345 0 0 Z " fill="#F6F7F8" transform="translate(275,183)"/>
<path d="M0 0 C0.53625 0.391875 1.0725 0.78375 1.625 1.1875 C0.985625 1.47625 0.34625 1.765 -0.3125 2.0625 C-2.52706079 3.01573451 -2.52706079 3.01573451 -3.375 5.1875 C-3.93395711 9.76911565 -3.76175023 13.31731198 -1.875 17.5625 C0.66062322 20.22490438 1.20637132 20.49048855 4.5078125 21.3515625 C7.92305733 22.56064304 9.34527975 23.69157186 11.0859375 26.875 C11.75116572 28.30011342 12.38888462 29.73835721 13 31.1875 C13.65248557 32.62552702 14.30608994 34.06304705 14.9609375 35.5 C15.23470215 36.13550781 15.5084668 36.77101562 15.79052734 37.42578125 C16.70202317 39.46025457 16.70202317 39.46025457 18.625 42.1875 C17.965 42.1875 17.305 42.1875 16.625 42.1875 C16.625 43.1775 16.625 44.1675 16.625 45.1875 C15.14 45.6825 15.14 45.6825 13.625 46.1875 C12.70436437 44.6899327 11.78873738 43.18928619 10.875 41.6875 C10.04548828 40.32431641 10.04548828 40.32431641 9.19921875 38.93359375 C7.84469556 36.57074064 6.75333029 34.24934876 5.6875 31.75 C3.67112618 27.54081964 0.92940219 26.84884821 -3.375 25.1875 C-8.25191891 20.31058109 -10.41208847 15.85074146 -10.625 9 C-10.375 5.1875 -10.375 5.1875 -8.375 2.1875 C-3.17970588 -1.08779412 -3.17970588 -1.08779412 0 0 Z " fill="#484A4F" transform="translate(162.375,182.8125)"/>
<path d="M0 0 C3.35855819 1.61954189 6.68211021 3.29889955 10 5 C11.134375 5.556875 12.26875 6.11375 13.4375 6.6875 C17.17228441 10.0579152 18.29771595 14.07612084 19 19 C18.67 20.32 18.34 21.64 18 23 C10.41 19.37 2.82 15.74 -5 12 C-2 3 -2 3 0 0 Z " fill="#A7DBE1" transform="translate(192,260)"/>
<path d="M0 0 C6.31922367 1.0452361 11.91033725 3.77365899 17.75 6.3125 C19.49216797 7.04243164 19.49216797 7.04243164 21.26953125 7.78710938 C22.37167969 8.26599609 23.47382813 8.74488281 24.609375 9.23828125 C25.61967773 9.67180908 26.62998047 10.10533691 27.67089844 10.55200195 C30 12 30 12 30.89550781 14.03198242 C31.02808747 16.52900256 30.28133416 17.88956727 29 20 C22.68077633 18.9547639 17.08966275 16.22634101 11.25 13.6875 C10.08855469 13.20087891 8.92710937 12.71425781 7.73046875 12.21289062 C6.62832031 11.73400391 5.52617187 11.25511719 4.390625 10.76171875 C3.38032227 10.32819092 2.37001953 9.89466309 1.32910156 9.44799805 C-1 8 -1 8 -1.89550781 5.96801758 C-2.02808747 3.47099744 -1.28133416 2.11043273 0 0 Z " fill="#F5F3F3" transform="translate(304,338)"/>
<path d="M0 0 C0.70226141 1.24176695 1.38629109 2.49385599 2.0625 3.75 C2.44535156 4.44609375 2.82820313 5.1421875 3.22265625 5.859375 C4.17224369 8.47431931 4.0464477 9.44187889 3 12 C1.08227539 13.28027344 1.08227539 13.28027344 -1.40234375 14.359375 C-2.29244141 14.75253906 -3.18253906 15.14570313 -4.09960938 15.55078125 C-5.03611328 15.94652344 -5.97261719 16.34226562 -6.9375 16.75 C-7.87013672 17.16121094 -8.80277344 17.57242187 -9.76367188 17.99609375 C-16.66467245 21 -16.66467245 21 -19 21 C-17.83780103 9.57171015 -17.83780103 9.57171015 -13.9765625 6.26953125 C-13.20054687 5.78871094 -12.42453125 5.30789063 -11.625 4.8125 C-10.85414063 4.32394531 -10.08328125 3.83539063 -9.2890625 3.33203125 C-3.56304985 0 -3.56304985 0 0 0 Z " fill="#ABDFE4" transform="translate(247,261)"/>
<path d="M0 0 C-0.26693561 7.20726151 -2.6190761 12.27343435 -7 18 C-9.39332141 20.19622436 -11.62345879 22 -15 22 C-15.05425226 19.60385874 -15.09379027 17.20896147 -15.125 14.8125 C-15.14175781 14.13896484 -15.15851563 13.46542969 -15.17578125 12.77148438 C-15.21489368 8.76246044 -15.14507056 5.45272619 -13 2 C-10.72265625 1.07421875 -10.72265625 1.07421875 -8.0625 0.6875 C-7.18722656 0.54699219 -6.31195313 0.40648437 -5.41015625 0.26171875 C-3 0 -3 0 0 0 Z " fill="#CBA180" transform="translate(182,153)"/>
<path d="M0 0 C-4.81747332 6.75593282 -12.25007911 10.10895134 -20.125 12.375 C-24.79859954 13.12880638 -29.27932249 13.17412335 -34 13 C-33.505 12.195625 -33.01 11.39125 -32.5 10.5625 C-30.91580347 8.35103815 -30.91580347 8.35103815 -31 7 C-30.17757813 6.91363281 -29.35515625 6.82726562 -28.5078125 6.73828125 C-21.57639167 5.86585068 -16.38362178 4.43781101 -10.30078125 1.04296875 C-6.72350296 -0.57864976 -3.86701045 -0.35805652 0 0 Z " fill="#4B4F52" transform="translate(331,246)"/>
<path d="M0 0 C8.25 0 16.5 0 25 0 C25.33 1.65 25.66 3.3 26 5 C17.09 5 8.18 5 -1 5 C-0.67 3.35 -0.34 1.7 0 0 Z " fill="#404247" transform="translate(69,184)"/>
<path d="M0 0 C1.98 0.495 1.98 0.495 4 1 C4 8.59 4 16.18 4 24 C2.35 24.33 0.7 24.66 -1 25 C-1.02886984 21.02084841 -1.04675406 17.04172347 -1.0625 13.0625 C-1.07087891 11.92619141 -1.07925781 10.78988281 -1.08789062 9.61914062 C-1.09111328 8.53955078 -1.09433594 7.45996094 -1.09765625 6.34765625 C-1.10289307 5.34742432 -1.10812988 4.34719238 -1.11352539 3.31665039 C-1 1 -1 1 0 0 Z " fill="#FDFEFE" transform="translate(99,247)"/>
<path d="M0 0 C0.66 0.33 1.32 0.66 2 1 C2.99 0.67 3.98 0.34 5 0 C5.020625 0.928125 5.04125 1.85625 5.0625 2.8125 C5.62844359 6.00696214 5.62844359 6.00696214 7.625 7.06640625 C9.38218533 7.79974771 11.19037549 8.40775925 13 9 C12.34 12.3 11.68 15.6 11 19 C10.67 19 10.34 19 10 19 C10 17.35 10 15.7 10 14 C9.13375 13.731875 8.2675 13.46375 7.375 13.1875 C4.08208036 12.02888013 1.08872125 10.61790161 -2 9 C-1.51421457 5.87709365 -1.0013988 3.00419641 0 0 Z " fill="#525359" transform="translate(297,339)"/>
<path d="M0 0 C3.11198065 1.49836105 6.0534615 3.19933758 9 5 C9.66 4.01 10.32 3.02 11 2 C10.56802365 6.7517398 9.67230705 8.92000054 6 12 C4.87411986 11.04270084 3.7493285 10.08412105 2.625 9.125 C1.99851562 8.59132813 1.37203125 8.05765625 0.7265625 7.5078125 C-0.55836651 6.38567993 -1.79371975 5.20628025 -3 4 C-2.34 3.67 -1.68 3.34 -1 3 C-0.67 2.01 -0.34 1.02 0 0 Z " fill="#505156" transform="translate(289,279)"/>
<path d="M0 0 C3.4375 0.9375 3.4375 0.9375 5.375 3 C5.725625 3.639375 6.07625 4.27875 6.4375 4.9375 C5.0625 6.4375 5.0625 6.4375 3.4375 7.9375 C2.7775 7.9375 2.1175 7.9375 1.4375 7.9375 C1.4375 7.2775 1.4375 6.6175 1.4375 5.9375 C-0.2125 5.9375 -1.8625 5.9375 -3.5625 5.9375 C-3.5625 6.5975 -3.5625 7.2575 -3.5625 7.9375 C-4.2225 7.9375 -4.8825 7.9375 -5.5625 7.9375 C-6.2225 6.2875 -6.8825 4.6375 -7.5625 2.9375 C-4.91606247 0.29106247 -3.82667781 -0.0671347 0 0 Z " fill="#505054" transform="translate(307.5625,277.0625)"/>
<path d="M0 0 C5.28 0 10.56 0 16 0 C16 1.32 16 2.64 16 4 C10.72 4 5.44 4 0 4 C0 2.68 0 1.36 0 0 Z " fill="#A5DAE2" transform="translate(106,204)"/>
<path d="M0 0 C0 1.65 0 3.3 0 5 C-6.5 8 -6.5 8 -11 8 C-11 6.35 -11 4.7 -11 3 C-7.14243493 0.84694043 -4.44870215 -0.39253254 0 0 Z " fill="#4A4D51" transform="translate(82,199)"/>
<path d="M0 0 C3.95820859 0.56545837 6.6659053 1.80902348 10 4 C9.67 5.32 9.34 6.64 9 8 C2.375 7.25 2.375 7.25 -1 5 C-0.67 3.35 -0.34 1.7 0 0 Z " fill="#494B50" transform="translate(87,173)"/>
<path d="M0 0 C4.55737263 0.43820891 7.57653445 0.85041169 11 4 C10.67 5.32 10.34 6.64 10 8 C6.28111761 7.49287967 3.26545761 6.88391785 0 5 C0 3.35 0 1.7 0 0 Z " fill="#464A4E" transform="translate(71,167)"/>
<path d="M0 0 C0.33 1.32 0.66 2.64 1 4 C-2.85756507 6.15305957 -5.55129785 7.39253254 -10 7 C-9.6875 4.625 -9.6875 4.625 -9 2 C-5.5647952 -0.29013653 -4.014669 -0.17842973 0 0 Z " fill="#4A4A4E" transform="translate(96,193)"/>
<path d="M0 0 C0.625 2.875 0.625 2.875 1 6 C0.34 6.66 -0.32 7.32 -1 8 C-2.50539661 7.05016642 -4.00420347 6.08988109 -5.5 5.125 C-6.3353125 4.59132813 -7.170625 4.05765625 -8.03125 3.5078125 C-8.6809375 3.01023437 -9.330625 2.51265625 -10 2 C-10 1.34 -10 0.68 -10 0 C-6.22996568 -2.61002376 -4.07631429 -1.66758312 0 0 Z " fill="#43464C" transform="translate(247,49)"/>
<path d="M0 0 C0.33 0 0.66 0 1 0 C1 7.26 1 14.52 1 22 C0.34 22.33 -0.32 22.66 -1 23 C-1.66 23.99 -2.32 24.98 -3 26 C-3.054348 23.9377952 -3.09294961 21.87517184 -3.125 19.8125 C-3.14820312 18.66394531 -3.17140625 17.51539063 -3.1953125 16.33203125 C-3.00211244 13.03603816 -2.31382995 10.98597716 -1 8 C-0.56111075 5.79745973 -0.56111075 5.79745973 -0.375 3.6875 C-0.25125 2.470625 -0.1275 1.25375 0 0 Z " fill="#B8E5EE" transform="translate(97,249)"/>
<path d="M0 0 C2.625 0.375 2.625 0.375 5 1 C5.38218767 2.65614657 5.71395102 4.32457024 6 6 C5 7 5 7 1.9375 7.0625 C0.968125 7.041875 -0.00125 7.02125 -1 7 C-1.625 4.625 -1.625 4.625 -2 2 C-1.34 1.34 -0.68 0.68 0 0 Z " fill="#494F54" transform="translate(198,336)"/>
<path d="M0 0 C0.78375 0.04125 1.5675 0.0825 2.375 0.125 C3 2.5 3 2.5 3.375 5.125 C2.715 5.785 2.055 6.445 1.375 7.125 C-1.25 6.75 -1.25 6.75 -3.625 6.125 C-4.25 4.25 -4.25 4.25 -4.625 2.125 C-2.625 0.125 -2.625 0.125 0 0 Z " fill="#4D5358" transform="translate(200.625,312.875)"/>
<path d="M0 0 C-2.14117647 6.09411765 -2.14117647 6.09411765 -5 8 C-7.6875 7.6875 -7.6875 7.6875 -10 7 C-9.34 6.34 -8.68 5.68 -8 5 C-7.71125 4.154375 -7.4225 3.30875 -7.125 2.4375 C-6 0 -6 0 -4 -0.875 C-2 -1 -2 -1 0 0 Z " fill="#41444D" transform="translate(354,330)"/>
<path d="M0 0 C0.33 0.99 0.66 1.98 1 3 C0.67 3.66 0.34 4.32 0 5 C0.66 5.66 1.32 6.32 2 7 C0.576875 7.928125 0.576875 7.928125 -0.875 8.875 C-3.94445109 10.81970969 -3.94445109 10.81970969 -6 13 C-6 10.33333333 -6 7.66666667 -6 5 C-3.5625 2.875 -3.5625 2.875 -1 1 C-0.67 0.67 -0.34 0.34 0 0 Z " fill="#4E5059" transform="translate(346,332)"/>
<path d="M0 0 C0.66 0.33 1.32 0.66 2 1 C2 1.66 2 2.32 2 3 C2.66 3 3.32 3 4 3 C4 3.66 4 4.32 4 5 C5.65 5 7.3 5 9 5 C9 6.32 9 7.64 9 9 C7.20703125 9.66796875 7.20703125 9.66796875 5 10 C3.26171875 8.92578125 3.26171875 8.92578125 1.6875 7.3125 C1.15511719 6.79300781 0.62273437 6.27351563 0.07421875 5.73828125 C-1 4 -1 4 -0.66796875 1.79296875 C-0.44753906 1.20128906 -0.22710937 0.60960938 0 0 Z " fill="#3C3F45" transform="translate(149,104)"/>
<path d="M0 0 C1.98 0.66 3.96 1.32 6 2 C4.02 4.97 4.02 4.97 2 8 C0.68 7.67 -0.64 7.34 -2 7 C-1.125 1.125 -1.125 1.125 0 0 Z " fill="#494C51" transform="translate(283,258)"/>
<path d="M0 0 C2.64 0.33 5.28 0.66 8 1 C8.33 2.32 8.66 3.64 9 5 C6.03 5 3.06 5 0 5 C0 3.35 0 1.7 0 0 Z " fill="#BBDCE7" transform="translate(110,184)"/>
<path d="M0 0 C1.67542976 0.28604898 3.34385343 0.61781233 5 1 C4.67 2.65 4.34 4.3 4 6 C2.68 6 1.36 6 0 6 C-0.38218767 4.34385343 -0.71395102 2.67542976 -1 1 C-0.67 0.67 -0.34 0.34 0 0 Z " fill="#F0FCFD" transform="translate(99,138)"/>
<path d="M0 0 C1.65 0.33 3.3 0.66 5 1 C4.67 2.65 4.34 4.3 4 6 C2.35 5.67 0.7 5.34 -1 5 C-0.67 3.35 -0.34 1.7 0 0 Z " fill="#F3FCFD" transform="translate(99,236)"/>
<path d="M0 0 C0.66 0 1.32 0 2 0 C2.33 0.99 2.66 1.98 3 3 C0.40108846 4.29945577 -1.32666656 4.0223077 -4.2265625 3.87890625 C-5.2578125 3.83056641 -6.2890625 3.78222656 -7.3515625 3.73242188 C-8.97191406 3.64831055 -8.97191406 3.64831055 -10.625 3.5625 C-11.71296875 3.51029297 -12.8009375 3.45808594 -13.921875 3.40429688 C-16.6148581 3.27437225 -19.30749336 3.13939838 -22 3 C-22 2.67 -22 2.34 -22 2 C-14.74 2 -7.48 2 0 2 C0 1.34 0 0.68 0 0 Z " fill="#E1E1E3" transform="translate(93,181)"/>
<path d="M0 0 C2.45823172 3.68734758 3.01242616 6.69699971 4 11 C3.01 11.66 2.02 12.32 1 13 C-1.48887372 8.31506124 -0.85687773 5.0555786 0 0 Z " fill="#85C7D3" transform="translate(96,136)"/>
<path d="M0 0 C0.66 0.33 1.32 0.66 2 1 C0.98545548 3.5363613 0.3146444 4.79351461 -2 6.3125 C-2.66 6.539375 -3.32 6.76625 -4 7 C-4.66 6.67 -5.32 6.34 -6 6 C-4.98545548 3.4636387 -4.3146444 2.20648539 -2 0.6875 C-1.34 0.460625 -0.68 0.23375 0 0 Z " fill="#3E4049" transform="translate(281,201)"/>
<path d="M0 0 C0.928125 0.0825 1.85625 0.165 2.8125 0.25 C2.1525 1.57 1.4925 2.89 0.8125 4.25 C-1.4975 4.25 -3.8075 4.25 -6.1875 4.25 C-4.36434338 1.00883268 -3.82500054 0.30000004 0 0 Z " fill="#3E4041" transform="translate(330.1875,241.75)"/>
<path d="M0 0 C1.32 0.66 2.64 1.32 4 2 C3.67 3.32 3.34 4.64 3 6 C0.03 5.505 0.03 5.505 -3 5 C-2.01 3.35 -1.02 1.7 0 0 Z " fill="#4E5357" transform="translate(78,169)"/>
<path d="M0 0 C0.99 0.33 1.98 0.66 3 1 C1.60667426 4.36720387 0.0210714 5.9859524 -3 8 C-3.66 7.34 -4.32 6.68 -5 6 C-3.35 4.02 -1.7 2.04 0 0 Z " fill="#393F48" transform="translate(288,105)"/>
<path d="M0 0 C1.65 0 3.3 0 5 0 C5.33 1.65 5.66 3.3 6 5 C4.02 5 2.04 5 0 5 C0 3.35 0 1.7 0 0 Z " fill="#3F4045" transform="translate(337,256)"/>
<path d="M0 0 C2.64 0 5.28 0 8 0 C6.25 2.0625 6.25 2.0625 4 4 C1.75 3.75 1.75 3.75 0 3 C0 2.01 0 1.02 0 0 Z " fill="#45465A" transform="translate(323,246)"/>
<path d="M0 0 C0 4.24645065 -1.81750806 6.38524772 -4 10 C-4.66 10 -5.32 10 -6 10 C-4.6302836 6.00499382 -2.74277578 3.19990508 0 0 Z " fill="#4C4F55" transform="translate(150,66)"/>
<path d="M0 0 C-0.66 1.32 -1.32 2.64 -2 4 C-3.32 3.67 -4.64 3.34 -6 3 C-6 2.01 -6 1.02 -6 0 C-2.25 -1.125 -2.25 -1.125 0 0 Z " fill="#3C4049" transform="translate(254,237)"/>
<path d="M0 0 C0.99 0.33 1.98 0.66 3 1 C2.34 2.98 1.68 4.96 1 7 C0.01 6.34 -0.98 5.68 -2 5 C-1.34 3.35 -0.68 1.7 0 0 Z " fill="#4A4F54" transform="translate(131,222)"/>
<path d="M0 0 C0.94875 0.04125 1.8975 0.0825 2.875 0.125 C3.205 1.445 3.535 2.765 3.875 4.125 C-0.58 3.135 -0.58 3.135 -5.125 2.125 C-3.125 0.125 -3.125 0.125 0 0 Z " fill="#57585A" transform="translate(93.125,192.875)"/>
<path d="M0 0 C3.53600465 1.91135386 5.78972846 3.62642766 8 7 C7.01 7 6.02 7 5 7 C5 6.34 5 5.68 5 5 C4.38125 4.71125 3.7625 4.4225 3.125 4.125 C1 3 1 3 -1 1 C-0.67 0.67 -0.34 0.34 0 0 Z " fill="#56575E" transform="translate(279,67)"/>
<path d="M0 0 C0.66 0 1.32 0 2 0 C2 1.65 2 3.3 2 5 C0.35 5.33 -1.3 5.66 -3 6 C-3 5.34 -3 4.68 -3 4 C-2.34 3.67 -1.68 3.34 -1 3 C-0.67 2.01 -0.34 1.02 0 0 Z " fill="#515357" transform="translate(259,65)"/>
<path d="M0 0 C0 3 0 3 -1.3125 4.38671875 C-2.875 5.59114583 -4.4375 6.79557292 -6 8 C-4.73058503 4.08597051 -3.48832306 2.20927127 0 0 Z " fill="#474E51" transform="translate(95,223)"/>
</svg>
